<?xml version="1.0" encoding="UTF-8" standalone="no"?>
<!-- Created with Inkscape (http://www.inkscape.org/) -->

<svg
   xmlns:dc="http://purl.org/dc/elements/1.1/"
   xmlns:cc="http://creativecommons.org/ns#"
   xmlns:rdf="http://www.w3.org/1999/02/22-rdf-syntax-ns#"
   xmlns:svg="http://www.w3.org/2000/svg"
   xmlns="http://www.w3.org/2000/svg"
   xmlns:xlink="http://www.w3.org/1999/xlink"
   xmlns:sodipodi="http://sodipodi.sourceforge.net/DTD/sodipodi-0.dtd"
   xmlns:inkscape="http://www.inkscape.org/namespaces/inkscape"
   width="620"
   height="128"
   id="svg2"
   sodipodi:version="0.32"
   inkscape:version="0.48.2 r9819"
   sodipodi:docname="i2p-logo.svg"
   version="1.0">
  <defs
     id="defs4" />
  <sodipodi:namedview
     id="base"
     pagecolor="#ffffff"
     bordercolor="#666666"
     borderopacity="1.0"
     inkscape:pageopacity="0.0"
     inkscape:pageshadow="2"
     inkscape:zoom="1.9032258"
     inkscape:cx="99.830508"
     inkscape:cy="21.966537"
     inkscape:document-units="px"
     inkscape:current-layer="layer2"
     showguides="true"
     inkscape:guide-bbox="true"
     inkscape:window-width="1270"
     inkscape:window-height="856"
     inkscape:window-x="0"
     inkscape:window-y="29"
     width="620px"
     height="128px"
     showgrid="false"
     inkscape:window-maximized="0">
    <sodipodi:guide
       orientation="vertical"
       position="9.6428572"
       id="guide3060" />
    <sodipodi:guide
       orientation="vertical"
       position="26.428571"
       id="guide3062" />
    <sodipodi:guide
       orientation="horizontal"
       position="122.5"
       id="guide3064" />
    <sodipodi:guide
       orientation="horizontal"
       position="107.14286"
       id="guide3066" />
    <sodipodi:guide
       orientation="horizontal"
       position="18.571429"
       id="guide3068" />
    <sodipodi:guide
       orientation="horizontal"
       position="7.5"
       id="guide3070" />
    <sodipodi:guide
       orientation="vertical"
       position="238.21429"
       id="guide3072" />
    <sodipodi:guide
       orientation="vertical"
       position="610.71429"
       id="guide3074" />
  </sodipodi:namedview>
  <metadata
     id="metadata7">
    <rdf:RDF>
      <cc:Work
         rdf:about="">
        <dc:format>image/svg+xml</dc:format>
        <dc:type
           rdf:resource="http://purl.org/dc/dcmitype/StillImage" />
        <dc:title></dc:title>
      </cc:Work>
    </rdf:RDF>
  </metadata>
  <g
     inkscape:label="Bitmap Reference"
     inkscape:groupmode="layer"
     id="layer1"
     style="opacity:1;display:none"
     transform="translate(-69.21429,-77.71932)">
    <image
       sodipodi:absref="/Users/mon/git/i2p-desktop/artwork/i2plogo.png"
       xlink:href="i2plogo.png"
       width="600.85712"
       height="118.14606"
       id="image3014"
       x="79.037186"
       y="83.147903"
       style="opacity:1;display:inline" />
  </g>
  <g
     inkscape:groupmode="layer"
     id="layer3"
     inkscape:label="Red Nodes"
     style="opacity:1;display:inline"
     transform="translate(-69.21429,-77.71932)">
    <path
       sodipodi:type="arc"
       style="opacity:1;fill:#ff0101;fill-opacity:1;stroke:none;stroke-width:3;stroke-linecap:butt;stroke-linejoin:miter;stroke-miterlimit:0;stroke-dasharray:none;stroke-dashoffset:0;stroke-opacity:1;display:inline"
       id="path2857"
       sodipodi:cx="308.03571"
       sodipodi:cy="105.3979"
       sodipodi:rx="9.4642859"
       sodipodi:ry="9.4642859"
       d="m 317.49999,105.3979 c 0,5.22698 -4.2373,9.46429 -9.46428,9.46429 -5.22699,0 -9.46429,-4.23731 -9.46429,-9.46429 0,-5.22698 4.2373,-9.464282 9.46429,-9.464282 5.22698,0 9.46428,4.237302 9.46428,9.464282 z"
       transform="translate(8.857147,3.642846)" />
    <path
       transform="translate(8.857147,26.57141)"
       d="m 317.49999,105.3979 c 0,5.22698 -4.2373,9.46429 -9.46428,9.46429 -5.22699,0 -9.46429,-4.23731 -9.46429,-9.46429 0,-5.22698 4.2373,-9.464282 9.46429,-9.464282 5.22698,0 9.46428,4.237302 9.46428,9.464282 z"
       sodipodi:ry="9.4642859"
       sodipodi:rx="9.4642859"
       sodipodi:cy="105.3979"
       sodipodi:cx="308.03571"
       id="path2861"
       style="opacity:1;fill:#ff0101;fill-opacity:1;stroke:none;stroke-width:3;stroke-linecap:butt;stroke-linejoin:miter;stroke-miterlimit:0;stroke-dasharray:none;stroke-dashoffset:0;stroke-opacity:1;display:inline"
       sodipodi:type="arc" />
    <path
       sodipodi:type="arc"
       style="opacity:1;fill:#ff0101;fill-opacity:1;stroke:none;stroke-width:3;stroke-linecap:butt;stroke-linejoin:miter;stroke-miterlimit:0;stroke-dasharray:none;stroke-dashoffset:0;stroke-opacity:1;display:inline"
       id="path2863"
       sodipodi:cx="308.03571"
       sodipodi:cy="105.3979"
       sodipodi:rx="9.4642859"
       sodipodi:ry="9.4642859"
       d="m 317.49999,105.3979 c 0,5.22698 -4.2373,9.46429 -9.46428,9.46429 -5.22699,0 -9.46429,-4.23731 -9.46429,-9.46429 0,-5.22698 4.2373,-9.464282 9.46429,-9.464282 5.22698,0 9.46428,4.237302 9.46428,9.464282 z"
       transform="translate(8.85716,49.75148)" />
    <path
       transform="translate(8.85716,72.2857)"
       d="m 317.49999,105.3979 c 0,5.22698 -4.2373,9.46429 -9.46428,9.46429 -5.22699,0 -9.46429,-4.23731 -9.46429,-9.46429 0,-5.22698 4.2373,-9.464282 9.46429,-9.464282 5.22698,0 9.46428,4.237302 9.46428,9.464282 z"
       sodipodi:ry="9.4642859"
       sodipodi:rx="9.4642859"
       sodipodi:cy="105.3979"
       sodipodi:cx="308.03571"
       id="path2865"
       style="opacity:1;fill:#ff0101;fill-opacity:1;stroke:none;stroke-width:3;stroke-linecap:butt;stroke-linejoin:miter;stroke-miterlimit:0;stroke-dasharray:none;stroke-dashoffset:0;stroke-opacity:1;display:inline"
       sodipodi:type="arc" />
    <path
       transform="translate(32.85715,3.642846)"
       d="m 317.49999,105.3979 c 0,5.22698 -4.2373,9.46429 -9.46428,9.46429 -5.22699,0 -9.46429,-4.23731 -9.46429,-9.46429 0,-5.22698 4.2373,-9.464282 9.46429,-9.464282 5.22698,0 9.46428,4.237302 9.46428,9.464282 z"
       sodipodi:ry="9.4642859"
       sodipodi:rx="9.4642859"
       sodipodi:cy="105.3979"
       sodipodi:cx="308.03571"
       id="path2869"
       style="opacity:1;fill:#ff0101;fill-opacity:1;stroke:none;stroke-width:3;stroke-linecap:butt;stroke-linejoin:miter;stroke-miterlimit:0;stroke-dasharray:none;stroke-dashoffset:0;stroke-opacity:1;display:inline"
       sodipodi:type="arc" />
    <path
       sodipodi:type="arc"
       style="opacity:1;fill:#ff0101;fill-opacity:1;stroke:none;stroke-width:3;stroke-linecap:butt;stroke-linejoin:miter;stroke-miterlimit:0;stroke-dasharray:none;stroke-dashoffset:0;stroke-opacity:1;display:inline"
       id="path2871"
       sodipodi:cx="308.03571"
       sodipodi:cy="105.3979"
       sodipodi:rx="9.4642859"
       sodipodi:ry="9.4642859"
       d="m 317.49999,105.3979 c 0,5.22698 -4.2373,9.46429 -9.46428,9.46429 -5.22699,0 -9.46429,-4.23731 -9.46429,-9.46429 0,-5.22698 4.2373,-9.464282 9.46429,-9.464282 5.22698,0 9.46428,4.237302 9.46428,9.464282 z"
       transform="translate(32.85715,26.57141)" />
    <path
       transform="translate(32.85716,49.75148)"
       d="m 317.49999,105.3979 c 0,5.22698 -4.2373,9.46429 -9.46428,9.46429 -5.22699,0 -9.46429,-4.23731 -9.46429,-9.46429 0,-5.22698 4.2373,-9.464282 9.46429,-9.464282 5.22698,0 9.46428,4.237302 9.46428,9.464282 z"
       sodipodi:ry="9.4642859"
       sodipodi:rx="9.4642859"
       sodipodi:cy="105.3979"
       sodipodi:cx="308.03571"
       id="path2873"
       style="opacity:1;fill:#ff0101;fill-opacity:1;stroke:none;stroke-width:3;stroke-linecap:butt;stroke-linejoin:miter;stroke-miterlimit:0;stroke-dasharray:none;stroke-dashoffset:0;stroke-opacity:1;display:inline"
       sodipodi:type="arc" />
    <path
       sodipodi:type="arc"
       style="opacity:1;fill:#ff0101;fill-opacity:1;stroke:none;stroke-width:3;stroke-linecap:butt;stroke-linejoin:miter;stroke-miterlimit:0;stroke-dasharray:none;stroke-dashoffset:0;stroke-opacity:1;display:inline"
       id="path2875"
       sodipodi:cx="308.03571"
       sodipodi:cy="105.3979"
       sodipodi:rx="9.4642859"
       sodipodi:ry="9.4642859"
       d="m 317.49999,105.3979 c 0,5.22698 -4.2373,9.46429 -9.46428,9.46429 -5.22699,0 -9.46429,-4.23731 -9.46429,-9.46429 0,-5.22698 4.2373,-9.464282 9.46429,-9.464282 5.22698,0 9.46428,4.237302 9.46428,9.464282 z"
       transform="translate(32.85716,72.2857)" />
    <path
       transform="translate(57.07144,3.642846)"
       d="m 317.49999,105.3979 c 0,5.22698 -4.2373,9.46429 -9.46428,9.46429 -5.22699,0 -9.46429,-4.23731 -9.46429,-9.46429 0,-5.22698 4.2373,-9.464282 9.46429,-9.464282 5.22698,0 9.46428,4.237302 9.46428,9.464282 z"
       sodipodi:ry="9.4642859"
       sodipodi:rx="9.4642859"
       sodipodi:cy="105.3979"
       sodipodi:cx="308.03571"
       id="path2877"
       style="opacity:1;fill:#ff0101;fill-opacity:1;stroke:none;stroke-width:3;stroke-linecap:butt;stroke-linejoin:miter;stroke-miterlimit:0;stroke-dasharray:none;stroke-dashoffset:0;stroke-opacity:1;display:inline"
       sodipodi:type="arc" />
    <path
       transform="translate(57.07145,49.75148)"
       d="m 317.49999,105.3979 c 0,5.22698 -4.2373,9.46429 -9.46428,9.46429 -5.22699,0 -9.46429,-4.23731 -9.46429,-9.46429 0,-5.22698 4.2373,-9.464282 9.46429,-9.464282 5.22698,0 9.46428,4.237302 9.46428,9.464282 z"
       sodipodi:ry="9.4642859"
       sodipodi:rx="9.4642859"
       sodipodi:cy="105.3979"
       sodipodi:cx="308.03571"
       id="path2881"
       style="opacity:1;fill:#ff0101;fill-opacity:1;stroke:none;stroke-width:3;stroke-linecap:butt;stroke-linejoin:miter;stroke-miterlimit:0;stroke-dasharray:none;stroke-dashoffset:0;stroke-opacity:1;display:inline"
       sodipodi:type="arc" />
    <path
       sodipodi:type="arc"
       style="opacity:1;fill:#ff0101;fill-opacity:1;stroke:none;stroke-width:3;stroke-linecap:butt;stroke-linejoin:miter;stroke-miterlimit:0;stroke-dasharray:none;stroke-dashoffset:0;stroke-opacity:1;display:inline"
       id="path2883"
       sodipodi:cx="308.03571"
       sodipodi:cy="105.3979"
       sodipodi:rx="9.4642859"
       sodipodi:ry="9.4642859"
       d="m 317.49999,105.3979 c 0,5.22698 -4.2373,9.46429 -9.46428,9.46429 -5.22699,0 -9.46429,-4.23731 -9.46429,-9.46429 0,-5.22698 4.2373,-9.464282 9.46429,-9.464282 5.22698,0 9.46428,4.237302 9.46428,9.464282 z"
       transform="translate(57.07145,72.2857)" />
    <path
       transform="translate(81.07145,72.2857)"
       d="m 317.49999,105.3979 c 0,5.22698 -4.2373,9.46429 -9.46428,9.46429 -5.22699,0 -9.46429,-4.23731 -9.46429,-9.46429 0,-5.22698 4.2373,-9.464282 9.46429,-9.464282 5.22698,0 9.46428,4.237302 9.46428,9.464282 z"
       sodipodi:ry="9.4642859"
       sodipodi:rx="9.4642859"
       sodipodi:cy="105.3979"
       sodipodi:cx="308.03571"
       id="path2891"
       style="opacity:1;fill:#ff0101;fill-opacity:1;stroke:none;stroke-width:3;stroke-linecap:butt;stroke-linejoin:miter;stroke-miterlimit:0;stroke-dasharray:none;stroke-dashoffset:0;stroke-opacity:1;display:inline"
       sodipodi:type="arc" />
    <path
       sodipodi:type="arc"
       style="opacity:1;fill:#ff0101;fill-opacity:1;stroke:none;stroke-width:3;stroke-linecap:butt;stroke-linejoin:miter;stroke-miterlimit:0;stroke-dasharray:none;stroke-dashoffset:0;stroke-opacity:1;display:inline"
       id="path2895"
       sodipodi:cx="308.03571"
       sodipodi:cy="105.3979"
       sodipodi:rx="9.4642859"
       sodipodi:ry="9.4642859"
       d="m 317.49999,105.3979 c 0,5.22698 -4.2373,9.46429 -9.46428,9.46429 -5.22699,0 -9.46429,-4.23731 -9.46429,-9.46429 0,-5.22698 4.2373,-9.464282 9.46429,-9.464282 5.22698,0 9.46428,4.237302 9.46428,9.464282 z"
       transform="translate(105.5715,26.57141)" />
    <path
       sodipodi:type="arc"
       style="opacity:1;fill:#ff0101;fill-opacity:1;stroke:none;stroke-width:3;stroke-linecap:butt;stroke-linejoin:miter;stroke-miterlimit:0;stroke-dasharray:none;stroke-dashoffset:0;stroke-opacity:1;display:inline"
       id="path2899"
       sodipodi:cx="308.03571"
       sodipodi:cy="105.3979"
       sodipodi:rx="9.4642859"
       sodipodi:ry="9.4642859"
       d="m 317.49999,105.3979 c 0,5.22698 -4.2373,9.46429 -9.46428,9.46429 -5.22699,0 -9.46429,-4.23731 -9.46429,-9.46429 0,-5.22698 4.2373,-9.464282 9.46429,-9.464282 5.22698,0 9.46428,4.237302 9.46428,9.464282 z"
       transform="translate(105.5715,72.2857)" />
  </g>
  <g
     inkscape:groupmode="layer"
     id="layer5"
     inkscape:label="Green Nodes"
     style="opacity:1"
     transform="translate(-69.21429,-77.71932)">
    <path
       transform="translate(177.7858,3.642846)"
       d="m 317.49999,105.3979 c 0,5.22698 -4.2373,9.46429 -9.46428,9.46429 -5.22699,0 -9.46429,-4.23731 -9.46429,-9.46429 0,-5.22698 4.2373,-9.464282 9.46429,-9.464282 5.22698,0 9.46428,4.237302 9.46428,9.464282 z"
       sodipodi:ry="9.4642859"
       sodipodi:rx="9.4642859"
       sodipodi:cy="105.3979"
       sodipodi:cx="308.03571"
       id="path2917"
       style="opacity:1;fill:#01ff01;fill-opacity:1;stroke:none;stroke-width:3;stroke-linecap:butt;stroke-linejoin:miter;stroke-miterlimit:0;stroke-dasharray:none;stroke-dashoffset:0;stroke-opacity:1;display:inline"
       sodipodi:type="arc" />
    <path
       sodipodi:type="arc"
       style="opacity:1;fill:#01ff01;fill-opacity:1;stroke:none;stroke-width:3;stroke-linecap:butt;stroke-linejoin:miter;stroke-miterlimit:0;stroke-dasharray:none;stroke-dashoffset:0;stroke-opacity:1;display:inline"
       id="path2919"
       sodipodi:cx="308.03571"
       sodipodi:cy="105.3979"
       sodipodi:rx="9.4642859"
       sodipodi:ry="9.4642859"
       d="m 317.49999,105.3979 c 0,5.22698 -4.2373,9.46429 -9.46428,9.46429 -5.22699,0 -9.46429,-4.23731 -9.46429,-9.46429 0,-5.22698 4.2373,-9.464282 9.46429,-9.464282 5.22698,0 9.46428,4.237302 9.46428,9.464282 z"
       transform="translate(177.7858,26.57141)" />
    <path
       transform="translate(202.5001,49.75148)"
       d="m 317.49999,105.3979 c 0,5.22698 -4.2373,9.46429 -9.46428,9.46429 -5.22699,0 -9.46429,-4.23731 -9.46429,-9.46429 0,-5.22698 4.2373,-9.464282 9.46429,-9.464282 5.22698,0 9.46428,4.237302 9.46428,9.464282 z"
       sodipodi:ry="9.4642859"
       sodipodi:rx="9.4642859"
       sodipodi:cy="105.3979"
       sodipodi:cx="308.03571"
       id="path2929"
       style="opacity:1;fill:#01ff01;fill-opacity:1;stroke:none;stroke-width:3;stroke-linecap:butt;stroke-linejoin:miter;stroke-miterlimit:0;stroke-dasharray:none;stroke-dashoffset:0;stroke-opacity:1;display:inline"
       sodipodi:type="arc" />
    <path
       sodipodi:type="arc"
       style="opacity:1;fill:#01ff01;fill-opacity:1;stroke:none;stroke-width:3;stroke-linecap:butt;stroke-linejoin:miter;stroke-miterlimit:0;stroke-dasharray:none;stroke-dashoffset:0;stroke-opacity:1;display:inline"
       id="path2933"
       sodipodi:cx="308.03571"
       sodipodi:cy="105.3979"
       sodipodi:rx="9.4642859"
       sodipodi:ry="9.4642859"
       d="m 317.49999,105.3979 c 0,5.22698 -4.2373,9.46429 -9.46428,9.46429 -5.22699,0 -9.46429,-4.23731 -9.46429,-9.46429 0,-5.22698 4.2373,-9.464282 9.46429,-9.464282 5.22698,0 9.46428,4.237302 9.46428,9.464282 z"
       transform="translate(226.5001,3.642846)" />
    <path
       transform="translate(226.5001,26.57141)"
       d="m 317.49999,105.3979 c 0,5.22698 -4.2373,9.46429 -9.46428,9.46429 -5.22699,0 -9.46429,-4.23731 -9.46429,-9.46429 0,-5.22698 4.2373,-9.464282 9.46429,-9.464282 5.22698,0 9.46428,4.237302 9.46428,9.464282 z"
       sodipodi:ry="9.4642859"
       sodipodi:rx="9.4642859"
       sodipodi:cy="105.3979"
       sodipodi:cx="308.03571"
       id="path2935"
       style="opacity:1;fill:#01ff01;fill-opacity:1;stroke:none;stroke-width:3;stroke-linecap:butt;stroke-linejoin:miter;stroke-miterlimit:0;stroke-dasharray:none;stroke-dashoffset:0;stroke-opacity:1;display:inline"
       sodipodi:type="arc" />
    <path
       transform="translate(226.5001,72.2857)"
       d="m 317.49999,105.3979 c 0,5.22698 -4.2373,9.46429 -9.46428,9.46429 -5.22699,0 -9.46429,-4.23731 -9.46429,-9.46429 0,-5.22698 4.2373,-9.464282 9.46429,-9.464282 5.22698,0 9.46428,4.237302 9.46428,9.464282 z"
       sodipodi:ry="9.4642859"
       sodipodi:rx="9.4642859"
       sodipodi:cy="105.3979"
       sodipodi:cx="308.03571"
       id="path2939"
       style="opacity:1;fill:#01ff01;fill-opacity:1;stroke:none;stroke-width:3;stroke-linecap:butt;stroke-linejoin:miter;stroke-miterlimit:0;stroke-dasharray:none;stroke-dashoffset:0;stroke-opacity:1;display:inline"
       sodipodi:type="arc" />
    <path
       sodipodi:type="arc"
       style="opacity:1;fill:#01ff01;fill-opacity:1;stroke:none;stroke-width:3;stroke-linecap:butt;stroke-linejoin:miter;stroke-miterlimit:0;stroke-dasharray:none;stroke-dashoffset:0;stroke-opacity:1;display:inline"
       id="path2941"
       sodipodi:cx="308.03571"
       sodipodi:cy="105.3979"
       sodipodi:rx="9.4642859"
       sodipodi:ry="9.4642859"
       d="m 317.49999,105.3979 c 0,5.22698 -4.2373,9.46429 -9.46428,9.46429 -5.22699,0 -9.46429,-4.23731 -9.46429,-9.46429 0,-5.22698 4.2373,-9.464282 9.46429,-9.464282 5.22698,0 9.46428,4.237302 9.46428,9.464282 z"
       transform="translate(250.7144,3.642846)" />
    <path
       sodipodi:type="arc"
       style="opacity:1;fill:#01ff01;fill-opacity:1;stroke:none;stroke-width:3;stroke-linecap:butt;stroke-linejoin:miter;stroke-miterlimit:0;stroke-dasharray:none;stroke-dashoffset:0;stroke-opacity:1;display:inline"
       id="path2945"
       sodipodi:cx="308.03571"
       sodipodi:cy="105.3979"
       sodipodi:rx="9.4642859"
       sodipodi:ry="9.4642859"
       d="m 317.49999,105.3979 c 0,5.22698 -4.2373,9.46429 -9.46428,9.46429 -5.22699,0 -9.46429,-4.23731 -9.46429,-9.46429 0,-5.22698 4.2373,-9.464282 9.46429,-9.464282 5.22698,0 9.46428,4.237302 9.46428,9.464282 z"
       transform="translate(250.7144,49.75148)" />
    <path
       transform="translate(274.7144,3.642846)"
       d="m 317.49999,105.3979 c 0,5.22698 -4.2373,9.46429 -9.46428,9.46429 -5.22699,0 -9.46429,-4.23731 -9.46429,-9.46429 0,-5.22698 4.2373,-9.464282 9.46429,-9.464282 5.22698,0 9.46428,4.237302 9.46428,9.464282 z"
       sodipodi:ry="9.4642859"
       sodipodi:rx="9.4642859"
       sodipodi:cy="105.3979"
       sodipodi:cx="308.03571"
       id="path2949"
       style="opacity:1;fill:#01ff01;fill-opacity:1;stroke:none;stroke-width:3;stroke-linecap:butt;stroke-linejoin:miter;stroke-miterlimit:0;stroke-dasharray:none;stroke-dashoffset:0;stroke-opacity:1;display:inline"
       sodipodi:type="arc" />
    <path
       transform="translate(274.7144,49.75148)"
       d="m 317.49999,105.3979 c 0,5.22698 -4.2373,9.46429 -9.46428,9.46429 -5.22699,0 -9.46429,-4.23731 -9.46429,-9.46429 0,-5.22698 4.2373,-9.464282 9.46429,-9.464282 5.22698,0 9.46428,4.237302 9.46428,9.464282 z"
       sodipodi:ry="9.4642859"
       sodipodi:rx="9.4642859"
       sodipodi:cy="105.3979"
       sodipodi:cx="308.03571"
       id="path2953"
       style="opacity:1;fill:#01ff01;fill-opacity:1;stroke:none;stroke-width:3;stroke-linecap:butt;stroke-linejoin:miter;stroke-miterlimit:0;stroke-dasharray:none;stroke-dashoffset:0;stroke-opacity:1;display:inline"
       sodipodi:type="arc" />
    <path
       sodipodi:type="arc"
       style="opacity:1;fill:#01ff01;fill-opacity:1;stroke:none;stroke-width:3;stroke-linecap:butt;stroke-linejoin:miter;stroke-miterlimit:0;stroke-dasharray:none;stroke-dashoffset:0;stroke-opacity:1;display:inline"
       id="path2955"
       sodipodi:cx="308.03571"
       sodipodi:cy="105.3979"
       sodipodi:rx="9.4642859"
       sodipodi:ry="9.4642859"
       d="m 317.49999,105.3979 c 0,5.22698 -4.2373,9.46429 -9.46428,9.46429 -5.22699,0 -9.46429,-4.23731 -9.46429,-9.46429 0,-5.22698 4.2373,-9.464282 9.46429,-9.464282 5.22698,0 9.46428,4.237302 9.46428,9.464282 z"
       transform="translate(274.7144,72.2857)" />
    <path
       transform="translate(299.2144,26.57141)"
       d="m 317.49999,105.3979 c 0,5.22698 -4.2373,9.46429 -9.46428,9.46429 -5.22699,0 -9.46429,-4.23731 -9.46429,-9.46429 0,-5.22698 4.2373,-9.464282 9.46429,-9.464282 5.22698,0 9.46428,4.237302 9.46428,9.464282 z"
       sodipodi:ry="9.4642859"
       sodipodi:rx="9.4642859"
       sodipodi:cy="105.3979"
       sodipodi:cx="308.03571"
       id="path2959"
       style="opacity:1;fill:#01ff01;fill-opacity:1;stroke:none;stroke-width:3;stroke-linecap:butt;stroke-linejoin:miter;stroke-miterlimit:0;stroke-dasharray:none;stroke-dashoffset:0;stroke-opacity:1;display:inline"
       sodipodi:type="arc" />
    <path
       sodipodi:type="arc"
       style="opacity:1;fill:#01ff01;fill-opacity:1;stroke:none;stroke-width:3;stroke-linecap:butt;stroke-linejoin:miter;stroke-miterlimit:0;stroke-dasharray:none;stroke-dashoffset:0;stroke-opacity:1;display:inline"
       id="path2961"
       sodipodi:cx="308.03571"
       sodipodi:cy="105.3979"
       sodipodi:rx="9.4642859"
       sodipodi:ry="9.4642859"
       d="m 317.49999,105.3979 c 0,5.22698 -4.2373,9.46429 -9.46428,9.46429 -5.22699,0 -9.46429,-4.23731 -9.46429,-9.46429 0,-5.22698 4.2373,-9.464282 9.46429,-9.464282 5.22698,0 9.46428,4.237302 9.46428,9.464282 z"
       transform="translate(299.2144,49.75148)" />
    <path
       transform="translate(299.2144,72.2857)"
       d="m 317.49999,105.3979 c 0,5.22698 -4.2373,9.46429 -9.46428,9.46429 -5.22699,0 -9.46429,-4.23731 -9.46429,-9.46429 0,-5.22698 4.2373,-9.464282 9.46429,-9.464282 5.22698,0 9.46428,4.237302 9.46428,9.464282 z"
       sodipodi:ry="9.4642859"
       sodipodi:rx="9.4642859"
       sodipodi:cy="105.3979"
       sodipodi:cx="308.03571"
       id="path2963"
       style="opacity:1;fill:#01ff01;fill-opacity:1;stroke:none;stroke-width:3;stroke-linecap:butt;stroke-linejoin:miter;stroke-miterlimit:0;stroke-dasharray:none;stroke-dashoffset:0;stroke-opacity:1;display:inline"
       sodipodi:type="arc" />
    <path
       transform="translate(323.2144,3.642846)"
       d="m 317.49999,105.3979 c 0,5.22698 -4.2373,9.46429 -9.46428,9.46429 -5.22699,0 -9.46429,-4.23731 -9.46429,-9.46429 0,-5.22698 4.2373,-9.464282 9.46429,-9.464282 5.22698,0 9.46428,4.237302 9.46428,9.464282 z"
       sodipodi:ry="9.4642859"
       sodipodi:rx="9.4642859"
       sodipodi:cy="105.3979"
       sodipodi:cx="308.03571"
       id="path2965"
       style="opacity:1;fill:#01ff01;fill-opacity:1;stroke:none;stroke-width:3;stroke-linecap:butt;stroke-linejoin:miter;stroke-miterlimit:0;stroke-dasharray:none;stroke-dashoffset:0;stroke-opacity:1;display:inline"
       sodipodi:type="arc" />
    <path
       sodipodi:type="arc"
       style="opacity:1;fill:#01ff01;fill-opacity:1;stroke:none;stroke-width:3;stroke-linecap:butt;stroke-linejoin:miter;stroke-miterlimit:0;stroke-dasharray:none;stroke-dashoffset:0;stroke-opacity:1;display:inline"
       id="path2967"
       sodipodi:cx="308.03571"
       sodipodi:cy="105.3979"
       sodipodi:rx="9.4642859"
       sodipodi:ry="9.4642859"
       d="m 317.49999,105.3979 c 0,5.22698 -4.2373,9.46429 -9.46428,9.46429 -5.22699,0 -9.46429,-4.23731 -9.46429,-9.46429 0,-5.22698 4.2373,-9.464282 9.46429,-9.464282 5.22698,0 9.46428,4.237302 9.46428,9.464282 z"
       transform="translate(323.2144,26.57141)" />
    <path
       transform="translate(323.2144,49.75148)"
       d="m 317.49999,105.3979 c 0,5.22698 -4.2373,9.46429 -9.46428,9.46429 -5.22699,0 -9.46429,-4.23731 -9.46429,-9.46429 0,-5.22698 4.2373,-9.464282 9.46429,-9.464282 5.22698,0 9.46428,4.237302 9.46428,9.464282 z"
       sodipodi:ry="9.4642859"
       sodipodi:rx="9.4642859"
       sodipodi:cy="105.3979"
       sodipodi:cx="308.03571"
       id="path2969"
       style="opacity:1;fill:#01ff01;fill-opacity:1;stroke:none;stroke-width:3;stroke-linecap:butt;stroke-linejoin:miter;stroke-miterlimit:0;stroke-dasharray:none;stroke-dashoffset:0;stroke-opacity:1;display:inline"
       sodipodi:type="arc" />
    <path
       sodipodi:type="arc"
       style="opacity:1;fill:#01ff01;fill-opacity:1;stroke:none;stroke-width:3;stroke-linecap:butt;stroke-linejoin:miter;stroke-miterlimit:0;stroke-dasharray:none;stroke-dashoffset:0;stroke-opacity:1;display:inline"
       id="path2971"
       sodipodi:cx="308.03571"
       sodipodi:cy="105.3979"
       sodipodi:rx="9.4642859"
       sodipodi:ry="9.4642859"
       d="m 317.49999,105.3979 c 0,5.22698 -4.2373,9.46429 -9.46428,9.46429 -5.22699,0 -9.46429,-4.23731 -9.46429,-9.46429 0,-5.22698 4.2373,-9.464282 9.46429,-9.464282 5.22698,0 9.46428,4.237302 9.46428,9.464282 z"
       transform="translate(323.2144,72.2857)" />
    <path
       transform="translate(347.4287,3.642846)"
       d="m 317.49999,105.3979 c 0,5.22698 -4.2373,9.46429 -9.46428,9.46429 -5.22699,0 -9.46429,-4.23731 -9.46429,-9.46429 0,-5.22698 4.2373,-9.464282 9.46429,-9.464282 5.22698,0 9.46428,4.237302 9.46428,9.464282 z"
       sodipodi:ry="9.4642859"
       sodipodi:rx="9.4642859"
       sodipodi:cy="105.3979"
       sodipodi:cx="308.03571"
       id="path2973"
       style="opacity:1;fill:#01ff01;fill-opacity:1;stroke:none;stroke-width:3;stroke-linecap:butt;stroke-linejoin:miter;stroke-miterlimit:0;stroke-dasharray:none;stroke-dashoffset:0;stroke-opacity:1;display:inline"
       sodipodi:type="arc" />
    <path
       sodipodi:type="arc"
       style="opacity:1;fill:#01ff01;fill-opacity:1;stroke:none;stroke-width:3;stroke-linecap:butt;stroke-linejoin:miter;stroke-miterlimit:0;stroke-dasharray:none;stroke-dashoffset:0;stroke-opacity:1;display:inline"
       id="path2975"
       sodipodi:cx="308.03571"
       sodipodi:cy="105.3979"
       sodipodi:rx="9.4642859"
       sodipodi:ry="9.4642859"
       d="m 317.49999,105.3979 c 0,5.22698 -4.2373,9.46429 -9.46428,9.46429 -5.22699,0 -9.46429,-4.23731 -9.46429,-9.46429 0,-5.22698 4.2373,-9.464282 9.46429,-9.464282 5.22698,0 9.46428,4.237302 9.46428,9.464282 z"
       transform="translate(347.4287,26.57141)" />
    <path
       transform="translate(347.4287,49.75148)"
       d="m 317.49999,105.3979 c 0,5.22698 -4.2373,9.46429 -9.46428,9.46429 -5.22699,0 -9.46429,-4.23731 -9.46429,-9.46429 0,-5.22698 4.2373,-9.464282 9.46429,-9.464282 5.22698,0 9.46428,4.237302 9.46428,9.464282 z"
       sodipodi:ry="9.4642859"
       sodipodi:rx="9.4642859"
       sodipodi:cy="105.3979"
       sodipodi:cx="308.03571"
       id="path2977"
       style="opacity:1;fill:#01ff01;fill-opacity:1;stroke:none;stroke-width:3;stroke-linecap:butt;stroke-linejoin:miter;stroke-miterlimit:0;stroke-dasharray:none;stroke-dashoffset:0;stroke-opacity:1;display:inline"
       sodipodi:type="arc" />
    <path
       sodipodi:type="arc"
       style="opacity:1;fill:#01ff01;fill-opacity:1;stroke:none;stroke-width:3;stroke-linecap:butt;stroke-linejoin:miter;stroke-miterlimit:0;stroke-dasharray:none;stroke-dashoffset:0;stroke-opacity:1;display:inline"
       id="path2979"
       sodipodi:cx="308.03571"
       sodipodi:cy="105.3979"
       sodipodi:rx="9.4642859"
       sodipodi:ry="9.4642859"
       d="m 317.49999,105.3979 c 0,5.22698 -4.2373,9.46429 -9.46428,9.46429 -5.22699,0 -9.46429,-4.23731 -9.46429,-9.46429 0,-5.22698 4.2373,-9.464282 9.46429,-9.464282 5.22698,0 9.46428,4.237302 9.46428,9.464282 z"
       transform="translate(347.4287,72.2857)" />
  </g>
  <g
     inkscape:groupmode="layer"
     id="layer4"
     inkscape:label="Yellow Nodes"
     style="opacity:1;display:inline"
     transform="translate(-69.21429,-77.71932)">
    <path
       sodipodi:type="arc"
       style="opacity:1;fill:#ebed02;fill-opacity:1;stroke:none;stroke-width:3;stroke-linecap:butt;stroke-linejoin:miter;stroke-miterlimit:0;stroke-dasharray:none;stroke-dashoffset:0;stroke-opacity:1;display:inline"
       id="path2879"
       sodipodi:cx="308.03571"
       sodipodi:cy="105.3979"
       sodipodi:rx="9.4642859"
       sodipodi:ry="9.4642859"
       d="m 317.49999,105.3979 c 0,5.22698 -4.2373,9.46429 -9.46428,9.46429 -5.22699,0 -9.46429,-4.23731 -9.46429,-9.46429 0,-5.22698 4.2373,-9.464282 9.46429,-9.464282 5.22698,0 9.46428,4.237302 9.46428,9.464282 z"
       transform="translate(57.07144,26.57141)" />
    <path
       sodipodi:type="arc"
       style="opacity:1;fill:#ebed02;fill-opacity:1;stroke:none;stroke-width:3;stroke-linecap:butt;stroke-linejoin:miter;stroke-miterlimit:0;stroke-dasharray:none;stroke-dashoffset:0;stroke-opacity:1;display:inline"
       id="path2885"
       sodipodi:cx="308.03571"
       sodipodi:cy="105.3979"
       sodipodi:rx="9.4642859"
       sodipodi:ry="9.4642859"
       d="m 317.49999,105.3979 c 0,5.22698 -4.2373,9.46429 -9.46428,9.46429 -5.22699,0 -9.46429,-4.23731 -9.46429,-9.46429 0,-5.22698 4.2373,-9.464282 9.46429,-9.464282 5.22698,0 9.46428,4.237302 9.46428,9.464282 z"
       transform="translate(81.07144,3.642846)" />
    <path
       transform="translate(81.07144,26.57141)"
       d="m 317.49999,105.3979 c 0,5.22698 -4.2373,9.46429 -9.46428,9.46429 -5.22699,0 -9.46429,-4.23731 -9.46429,-9.46429 0,-5.22698 4.2373,-9.464282 9.46429,-9.464282 5.22698,0 9.46428,4.237302 9.46428,9.464282 z"
       sodipodi:ry="9.4642859"
       sodipodi:rx="9.4642859"
       sodipodi:cy="105.3979"
       sodipodi:cx="308.03571"
       id="path2887"
       style="opacity:1;fill:#ebed02;fill-opacity:1;stroke:none;stroke-width:3;stroke-linecap:butt;stroke-linejoin:miter;stroke-miterlimit:0;stroke-dasharray:none;stroke-dashoffset:0;stroke-opacity:1;display:inline"
       sodipodi:type="arc" />
    <path
       sodipodi:type="arc"
       style="opacity:1;fill:#ebed02;fill-opacity:1;stroke:none;stroke-width:3;stroke-linecap:butt;stroke-linejoin:miter;stroke-miterlimit:0;stroke-dasharray:none;stroke-dashoffset:0;stroke-opacity:1;display:inline"
       id="path2889"
       sodipodi:cx="308.03571"
       sodipodi:cy="105.3979"
       sodipodi:rx="9.4642859"
       sodipodi:ry="9.4642859"
       d="m 317.49999,105.3979 c 0,5.22698 -4.2373,9.46429 -9.46428,9.46429 -5.22699,0 -9.46429,-4.23731 -9.46429,-9.46429 0,-5.22698 4.2373,-9.464282 9.46429,-9.464282 5.22698,0 9.46428,4.237302 9.46428,9.464282 z"
       transform="translate(81.07145,49.75148)" />
    <path
       transform="translate(105.5715,3.642846)"
       d="m 317.49999,105.3979 c 0,5.22698 -4.2373,9.46429 -9.46428,9.46429 -5.22699,0 -9.46429,-4.23731 -9.46429,-9.46429 0,-5.22698 4.2373,-9.464282 9.46429,-9.464282 5.22698,0 9.46428,4.237302 9.46428,9.464282 z"
       sodipodi:ry="9.4642859"
       sodipodi:rx="9.4642859"
       sodipodi:cy="105.3979"
       sodipodi:cx="308.03571"
       id="path2893"
       style="opacity:1;fill:#ebed02;fill-opacity:1;stroke:none;stroke-width:3;stroke-linecap:butt;stroke-linejoin:miter;stroke-miterlimit:0;stroke-dasharray:none;stroke-dashoffset:0;stroke-opacity:1;display:inline"
       sodipodi:type="arc" />
    <path
       transform="translate(105.5715,49.75148)"
       d="m 317.49999,105.3979 c 0,5.22698 -4.2373,9.46429 -9.46428,9.46429 -5.22699,0 -9.46429,-4.23731 -9.46429,-9.46429 0,-5.22698 4.2373,-9.464282 9.46429,-9.464282 5.22698,0 9.46428,4.237302 9.46428,9.464282 z"
       sodipodi:ry="9.4642859"
       sodipodi:rx="9.4642859"
       sodipodi:cy="105.3979"
       sodipodi:cx="308.03571"
       id="path2897"
       style="opacity:1;fill:#ebed02;fill-opacity:1;stroke:none;stroke-width:3;stroke-linecap:butt;stroke-linejoin:miter;stroke-miterlimit:0;stroke-dasharray:none;stroke-dashoffset:0;stroke-opacity:1;display:inline"
       sodipodi:type="arc" />
    <path
       sodipodi:type="arc"
       style="opacity:1;fill:#ebed02;fill-opacity:1;stroke:none;stroke-width:3;stroke-linecap:butt;stroke-linejoin:miter;stroke-miterlimit:0;stroke-dasharray:none;stroke-dashoffset:0;stroke-opacity:1;display:inline"
       id="path2901"
       sodipodi:cx="308.03571"
       sodipodi:cy="105.3979"
       sodipodi:rx="9.4642859"
       sodipodi:ry="9.4642859"
       d="m 317.49999,105.3979 c 0,5.22698 -4.2373,9.46429 -9.46428,9.46429 -5.22699,0 -9.46429,-4.23731 -9.46429,-9.46429 0,-5.22698 4.2373,-9.464282 9.46429,-9.464282 5.22698,0 9.46428,4.237302 9.46428,9.464282 z"
       transform="translate(129.5715,3.642846)" />
    <path
       transform="translate(129.5715,26.57141)"
       d="m 317.49999,105.3979 c 0,5.22698 -4.2373,9.46429 -9.46428,9.46429 -5.22699,0 -9.46429,-4.23731 -9.46429,-9.46429 0,-5.22698 4.2373,-9.464282 9.46429,-9.464282 5.22698,0 9.46428,4.237302 9.46428,9.464282 z"
       sodipodi:ry="9.4642859"
       sodipodi:rx="9.4642859"
       sodipodi:cy="105.3979"
       sodipodi:cx="308.03571"
       id="path2903"
       style="opacity:1;fill:#ebed02;fill-opacity:1;stroke:none;stroke-width:3;stroke-linecap:butt;stroke-linejoin:miter;stroke-miterlimit:0;stroke-dasharray:none;stroke-dashoffset:0;stroke-opacity:1;display:inline"
       sodipodi:type="arc" />
    <path
       sodipodi:type="arc"
       style="opacity:1;fill:#ebed02;fill-opacity:1;stroke:none;stroke-width:3;stroke-linecap:butt;stroke-linejoin:miter;stroke-miterlimit:0;stroke-dasharray:none;stroke-dashoffset:0;stroke-opacity:1;display:inline"
       id="path2905"
       sodipodi:cx="308.03571"
       sodipodi:cy="105.3979"
       sodipodi:rx="9.4642859"
       sodipodi:ry="9.4642859"
       d="m 317.49999,105.3979 c 0,5.22698 -4.2373,9.46429 -9.46428,9.46429 -5.22699,0 -9.46429,-4.23731 -9.46429,-9.46429 0,-5.22698 4.2373,-9.464282 9.46429,-9.464282 5.22698,0 9.46428,4.237302 9.46428,9.464282 z"
       transform="translate(129.5715,49.75148)" />
    <path
       transform="translate(129.5715,72.2857)"
       d="m 317.49999,105.3979 c 0,5.22698 -4.2373,9.46429 -9.46428,9.46429 -5.22699,0 -9.46429,-4.23731 -9.46429,-9.46429 0,-5.22698 4.2373,-9.464282 9.46429,-9.464282 5.22698,0 9.46428,4.237302 9.46428,9.464282 z"
       sodipodi:ry="9.4642859"
       sodipodi:rx="9.4642859"
       sodipodi:cy="105.3979"
       sodipodi:cx="308.03571"
       id="path2907"
       style="opacity:1;fill:#ebed02;fill-opacity:1;stroke:none;stroke-width:3;stroke-linecap:butt;stroke-linejoin:miter;stroke-miterlimit:0;stroke-dasharray:none;stroke-dashoffset:0;stroke-opacity:1;display:inline"
       sodipodi:type="arc" />
    <path
       sodipodi:type="arc"
       style="opacity:1;fill:#ebed02;fill-opacity:1;stroke:none;stroke-width:3;stroke-linecap:butt;stroke-linejoin:miter;stroke-miterlimit:0;stroke-dasharray:none;stroke-dashoffset:0;stroke-opacity:1;display:inline"
       id="path2909"
       sodipodi:cx="308.03571"
       sodipodi:cy="105.3979"
       sodipodi:rx="9.4642859"
       sodipodi:ry="9.4642859"
       d="m 317.49999,105.3979 c 0,5.22698 -4.2373,9.46429 -9.46428,9.46429 -5.22699,0 -9.46429,-4.23731 -9.46429,-9.46429 0,-5.22698 4.2373,-9.464282 9.46429,-9.464282 5.22698,0 9.46428,4.237302 9.46428,9.464282 z"
       transform="translate(153.7858,3.642846)" />
    <path
       transform="translate(153.7858,26.57141)"
       d="m 317.49999,105.3979 c 0,5.22698 -4.2373,9.46429 -9.46428,9.46429 -5.22699,0 -9.46429,-4.23731 -9.46429,-9.46429 0,-5.22698 4.2373,-9.464282 9.46429,-9.464282 5.22698,0 9.46428,4.237302 9.46428,9.464282 z"
       sodipodi:ry="9.4642859"
       sodipodi:rx="9.4642859"
       sodipodi:cy="105.3979"
       sodipodi:cx="308.03571"
       id="path2911"
       style="opacity:1;fill:#ebed02;fill-opacity:1;stroke:none;stroke-width:3;stroke-linecap:butt;stroke-linejoin:miter;stroke-miterlimit:0;stroke-dasharray:none;stroke-dashoffset:0;stroke-opacity:1;display:inline"
       sodipodi:type="arc" />
    <path
       sodipodi:type="arc"
       style="opacity:1;fill:#ebed02;fill-opacity:1;stroke:none;stroke-width:3;stroke-linecap:butt;stroke-linejoin:miter;stroke-miterlimit:0;stroke-dasharray:none;stroke-dashoffset:0;stroke-opacity:1;display:inline"
       id="path2913"
       sodipodi:cx="308.03571"
       sodipodi:cy="105.3979"
       sodipodi:rx="9.4642859"
       sodipodi:ry="9.4642859"
       d="m 317.49999,105.3979 c 0,5.22698 -4.2373,9.46429 -9.46428,9.46429 -5.22699,0 -9.46429,-4.23731 -9.46429,-9.46429 0,-5.22698 4.2373,-9.464282 9.46429,-9.464282 5.22698,0 9.46428,4.237302 9.46428,9.464282 z"
       transform="translate(153.7858,49.75148)" />
    <path
       transform="translate(153.7858,72.2857)"
       d="m 317.49999,105.3979 c 0,5.22698 -4.2373,9.46429 -9.46428,9.46429 -5.22699,0 -9.46429,-4.23731 -9.46429,-9.46429 0,-5.22698 4.2373,-9.464282 9.46429,-9.464282 5.22698,0 9.46428,4.237302 9.46428,9.464282 z"
       sodipodi:ry="9.4642859"
       sodipodi:rx="9.4642859"
       sodipodi:cy="105.3979"
       sodipodi:cx="308.03571"
       id="path2915"
       style="opacity:1;fill:#ebed02;fill-opacity:1;stroke:none;stroke-width:3;stroke-linecap:butt;stroke-linejoin:miter;stroke-miterlimit:0;stroke-dasharray:none;stroke-dashoffset:0;stroke-opacity:1;display:inline"
       sodipodi:type="arc" />
    <path
       transform="translate(177.7858,49.75148)"
       d="m 317.49999,105.3979 c 0,5.22698 -4.2373,9.46429 -9.46428,9.46429 -5.22699,0 -9.46429,-4.23731 -9.46429,-9.46429 0,-5.22698 4.2373,-9.464282 9.46429,-9.464282 5.22698,0 9.46428,4.237302 9.46428,9.464282 z"
       sodipodi:ry="9.4642859"
       sodipodi:rx="9.4642859"
       sodipodi:cy="105.3979"
       sodipodi:cx="308.03571"
       id="path2921"
       style="opacity:1;fill:#ebed02;fill-opacity:1;stroke:none;stroke-width:3;stroke-linecap:butt;stroke-linejoin:miter;stroke-miterlimit:0;stroke-dasharray:none;stroke-dashoffset:0;stroke-opacity:1;display:inline"
       sodipodi:type="arc" />
    <path
       sodipodi:type="arc"
       style="opacity:1;fill:#ebed02;fill-opacity:1;stroke:none;stroke-width:3;stroke-linecap:butt;stroke-linejoin:miter;stroke-miterlimit:0;stroke-dasharray:none;stroke-dashoffset:0;stroke-opacity:1;display:inline"
       id="path2923"
       sodipodi:cx="308.03571"
       sodipodi:cy="105.3979"
       sodipodi:rx="9.4642859"
       sodipodi:ry="9.4642859"
       d="m 317.49999,105.3979 c 0,5.22698 -4.2373,9.46429 -9.46428,9.46429 -5.22699,0 -9.46429,-4.23731 -9.46429,-9.46429 0,-5.22698 4.2373,-9.464282 9.46429,-9.464282 5.22698,0 9.46428,4.237302 9.46428,9.464282 z"
       transform="translate(177.7858,72.2857)" />
    <path
       transform="translate(202.5001,3.642846)"
       d="m 317.49999,105.3979 c 0,5.22698 -4.2373,9.46429 -9.46428,9.46429 -5.22699,0 -9.46429,-4.23731 -9.46429,-9.46429 0,-5.22698 4.2373,-9.464282 9.46429,-9.464282 5.22698,0 9.46428,4.237302 9.46428,9.464282 z"
       sodipodi:ry="9.4642859"
       sodipodi:rx="9.4642859"
       sodipodi:cy="105.3979"
       sodipodi:cx="308.03571"
       id="path2925"
       style="opacity:1;fill:#ebed02;fill-opacity:1;stroke:none;stroke-width:3;stroke-linecap:butt;stroke-linejoin:miter;stroke-miterlimit:0;stroke-dasharray:none;stroke-dashoffset:0;stroke-opacity:1;display:inline"
       sodipodi:type="arc" />
    <path
       sodipodi:type="arc"
       style="opacity:1;fill:#ebed02;fill-opacity:1;stroke:none;stroke-width:3;stroke-linecap:butt;stroke-linejoin:miter;stroke-miterlimit:0;stroke-dasharray:none;stroke-dashoffset:0;stroke-opacity:1;display:inline"
       id="path2927"
       sodipodi:cx="308.03571"
       sodipodi:cy="105.3979"
       sodipodi:rx="9.4642859"
       sodipodi:ry="9.4642859"
       d="m 317.49999,105.3979 c 0,5.22698 -4.2373,9.46429 -9.46428,9.46429 -5.22699,0 -9.46429,-4.23731 -9.46429,-9.46429 0,-5.22698 4.2373,-9.464282 9.46429,-9.464282 5.22698,0 9.46428,4.237302 9.46428,9.464282 z"
       transform="translate(202.5001,26.57141)" />
    <path
       sodipodi:type="arc"
       style="opacity:1;fill:#ebed02;fill-opacity:1;stroke:none;stroke-width:3;stroke-linecap:butt;stroke-linejoin:miter;stroke-miterlimit:0;stroke-dasharray:none;stroke-dashoffset:0;stroke-opacity:1;display:inline"
       id="path2931"
       sodipodi:cx="308.03571"
       sodipodi:cy="105.3979"
       sodipodi:rx="9.4642859"
       sodipodi:ry="9.4642859"
       d="m 317.49999,105.3979 c 0,5.22698 -4.2373,9.46429 -9.46428,9.46429 -5.22699,0 -9.46429,-4.23731 -9.46429,-9.46429 0,-5.22698 4.2373,-9.464282 9.46429,-9.464282 5.22698,0 9.46428,4.237302 9.46428,9.464282 z"
       transform="translate(202.5001,72.2857)" />
    <path
       sodipodi:type="arc"
       style="opacity:1;fill:#ebed02;fill-opacity:1;stroke:none;stroke-width:3;stroke-linecap:butt;stroke-linejoin:miter;stroke-miterlimit:0;stroke-dasharray:none;stroke-dashoffset:0;stroke-opacity:1;display:inline"
       id="path2937"
       sodipodi:cx="308.03571"
       sodipodi:cy="105.3979"
       sodipodi:rx="9.4642859"
       sodipodi:ry="9.4642859"
       d="m 317.49999,105.3979 c 0,5.22698 -4.2373,9.46429 -9.46428,9.46429 -5.22699,0 -9.46429,-4.23731 -9.46429,-9.46429 0,-5.22698 4.2373,-9.464282 9.46429,-9.464282 5.22698,0 9.46428,4.237302 9.46428,9.464282 z"
       transform="translate(226.5001,49.75148)" />
    <path
       transform="translate(250.7144,26.57141)"
       d="m 317.49999,105.3979 c 0,5.22698 -4.2373,9.46429 -9.46428,9.46429 -5.22699,0 -9.46429,-4.23731 -9.46429,-9.46429 0,-5.22698 4.2373,-9.464282 9.46429,-9.464282 5.22698,0 9.46428,4.237302 9.46428,9.464282 z"
       sodipodi:ry="9.4642859"
       sodipodi:rx="9.4642859"
       sodipodi:cy="105.3979"
       sodipodi:cx="308.03571"
       id="path2943"
       style="opacity:1;fill:#ebed02;fill-opacity:1;stroke:none;stroke-width:3;stroke-linecap:butt;stroke-linejoin:miter;stroke-miterlimit:0;stroke-dasharray:none;stroke-dashoffset:0;stroke-opacity:1;display:inline"
       sodipodi:type="arc" />
    <path
       transform="translate(250.7144,72.2857)"
       d="m 317.49999,105.3979 c 0,5.22698 -4.2373,9.46429 -9.46428,9.46429 -5.22699,0 -9.46429,-4.23731 -9.46429,-9.46429 0,-5.22698 4.2373,-9.464282 9.46429,-9.464282 5.22698,0 9.46428,4.237302 9.46428,9.464282 z"
       sodipodi:ry="9.4642859"
       sodipodi:rx="9.4642859"
       sodipodi:cy="105.3979"
       sodipodi:cx="308.03571"
       id="path2947"
       style="opacity:1;fill:#ebed02;fill-opacity:1;stroke:none;stroke-width:3;stroke-linecap:butt;stroke-linejoin:miter;stroke-miterlimit:0;stroke-dasharray:none;stroke-dashoffset:0;stroke-opacity:1;display:inline"
       sodipodi:type="arc" />
    <path
       sodipodi:type="arc"
       style="opacity:1;fill:#ebed02;fill-opacity:1;stroke:none;stroke-width:3;stroke-linecap:butt;stroke-linejoin:miter;stroke-miterlimit:0;stroke-dasharray:none;stroke-dashoffset:0;stroke-opacity:1;display:inline"
       id="path2951"
       sodipodi:cx="308.03571"
       sodipodi:cy="105.3979"
       sodipodi:rx="9.4642859"
       sodipodi:ry="9.4642859"
       d="m 317.49999,105.3979 c 0,5.22698 -4.2373,9.46429 -9.46428,9.46429 -5.22699,0 -9.46429,-4.23731 -9.46429,-9.46429 0,-5.22698 4.2373,-9.464282 9.46429,-9.464282 5.22698,0 9.46428,4.237302 9.46428,9.464282 z"
       transform="translate(274.7144,26.57141)" />
    <path
       sodipodi:type="arc"
       style="opacity:1;fill:#ebed02;fill-opacity:1;stroke:none;stroke-width:3;stroke-linecap:butt;stroke-linejoin:miter;stroke-miterlimit:0;stroke-dasharray:none;stroke-dashoffset:0;stroke-opacity:1;display:inline"
       id="path2957"
       sodipodi:cx="308.03571"
       sodipodi:cy="105.3979"
       sodipodi:rx="9.4642859"
       sodipodi:ry="9.4642859"
       d="m 317.49999,105.3979 c 0,5.22698 -4.2373,9.46429 -9.46428,9.46429 -5.22699,0 -9.46429,-4.23731 -9.46429,-9.46429 0,-5.22698 4.2373,-9.464282 9.46429,-9.464282 5.22698,0 9.46428,4.237302 9.46428,9.464282 z"
       transform="translate(299.2144,3.642846)" />
  </g>
  <g
     inkscape:groupmode="layer"
     id="layer6"
     inkscape:label="Horizontal Braces"
     transform="translate(-69.21429,-77.71932)">
    <path
       style="fill:none;fill-opacity:0.75;fill-rule:evenodd;stroke:black;stroke-width:3;stroke-linecap:butt;stroke-linejoin:miter;stroke-miterlimit:0;stroke-dasharray:none;stroke-opacity:1;display:inline"
       d="M 78.857143,84.71932 L 679.92858,84.71932"
       id="path1964"
       sodipodi:nodetypes="cc" />
    <path
       style="fill:none;fill-opacity:0.75;fill-rule:evenodd;stroke:black;stroke-width:3;stroke-linecap:butt;stroke-linejoin:miter;stroke-miterlimit:0;stroke-dasharray:none;stroke-opacity:1;display:inline"
       d="M 78.857143,199.71932 L 679.92858,199.71932"
       id="path2854"
       sodipodi:nodetypes="cc" />
  </g>
  <g
     inkscape:groupmode="layer"
     id="layer2"
     inkscape:label="I2P Text"
     style="display:inline"
     transform="translate(-69.21429,-77.71932)">
    <g
       style="font-size:121.7385788px;font-style:normal;font-weight:normal;line-height:100%;fill:#000000;fill-opacity:1;stroke:none;font-family:DavysDingbats"
       id="text1955">
      <path
         d="m 95.521051,99.896313 26.986969,0 0,87.142947 -26.986969,0 0,-87.142947"
         style="font-variant:normal;font-stretch:normal;text-align:start;line-height:100%;writing-mode:lr-tb;text-anchor:start;font-family:Arial Black"
         id="path3061" />
      <path
         d="m 208.69988,187.03926 -72.63893,0 c 0.83219,-7.17274 3.34859,-13.90957 7.54922,-20.21051 4.24022,-6.34052 12.16591,-13.81047 23.77706,-22.40988 7.09345,-5.27054 11.6309,-9.273 13.61237,-12.00742 1.98137,-2.7343 2.97208,-5.32996 2.97214,-7.78699 -6e-5,-2.65504 -0.99077,-4.91386 -2.97214,-6.77646 -1.94184,-1.9021 -4.3988,-2.85318 -7.37089,-2.85325 -3.09105,7e-5 -5.62727,0.97097 -7.60866,2.91269 -1.94182,1.94186 -3.24956,5.36972 -3.92321,10.28358 l -24.25261,-1.96161 c 0.95107,-6.81602 2.69472,-12.12623 5.23095,-15.93063 2.53621,-3.84388 6.10277,-6.77638 10.69968,-8.79751 4.6365,-2.060596 11.03649,-3.090935 19.19998,-3.091023 8.52007,8.8e-5 15.13801,0.970984 19.85385,2.912693 4.75535,1.94187 8.48042,4.93382 11.17522,8.97584 2.73429,4.00255 4.10147,8.50037 4.10155,13.49348 -8e-5,5.31027 -1.5654,10.38271 -4.69597,15.21733 -3.09109,4.83471 -8.73814,10.14492 -16.94116,15.93063 -4.87435,3.36845 -8.14369,5.72634 -9.80804,7.07368 -1.62481,1.34739 -3.54679,3.11085 -5.76594,5.2904 l 37.80553,0 0,19.73496"
         style="font-variant:normal;font-stretch:normal;text-align:start;line-height:100%;writing-mode:lr-tb;text-anchor:start;font-family:Arial Black"
         id="path3063" />
      <path
         d="m 222.96612,99.896313 44.76033,0 c 9.74853,8.7e-5 17.04016,2.318347 21.8749,6.954797 4.87422,4.6366 7.31137,11.23473 7.31145,19.7944 -8e-5,8.79757 -2.65519,15.6731 -7.96532,20.62661 -5.27065,4.95359 -13.33503,7.43036 -24.19316,7.43033 l -14.74178,0 0,32.33681 -27.04642,0 0,-87.142947 m 27.04642,37.151667 6.59813,0 c 5.19128,5e-5 8.83709,-0.89159 10.93745,-2.67492 2.10026,-1.82285 3.15041,-4.14112 3.15046,-6.95479 -5e-5,-2.7343 -0.91151,-5.05256 -2.73436,-6.95479 -1.82296,-1.9021 -5.25082,-2.85318 -10.28358,-2.85325 l -7.6681,0 0,19.43775"
         style="font-variant:normal;font-stretch:normal;text-align:start;line-height:100%;writing-mode:lr-tb;text-anchor:start;font-family:Arial Black"
         id="path3065" />
    </g>
  </g>
</svg>
