<?xml version="1.0" encoding="UTF-8" standalone="no"?>
<!-- Created with Inkscape (http://www.inkscape.org/) -->

<svg
   xmlns:dc="http://purl.org/dc/elements/1.1/"
   xmlns:cc="http://creativecommons.org/ns#"
   xmlns:rdf="http://www.w3.org/1999/02/22-rdf-syntax-ns#"
   xmlns:svg="http://www.w3.org/2000/svg"
   xmlns="http://www.w3.org/2000/svg"
   xmlns:xlink="http://www.w3.org/1999/xlink"
   xmlns:sodipodi="http://sodipodi.sourceforge.net/DTD/sodipodi-0.dtd"
   xmlns:inkscape="http://www.inkscape.org/namespaces/inkscape"
   width="620"
   height="470"
   id="svg2"
   sodipodi:version="0.32"
   inkscape:version="0.48.2 r9819"
   sodipodi:docname="i2p-logo.svg"
   version="1.0">
  <defs
     id="defs4" />
  <sodipodi:namedview
     id="base"
     pagecolor="#ffffff"
     bordercolor="#666666"
     borderopacity="1.0"
     inkscape:pageopacity="0.0"
     inkscape:pageshadow="2"
     inkscape:zoom="0.73"
     inkscape:cx="225.9322"
     inkscape:cy="308.06823"
     inkscape:document-units="px"
     inkscape:current-layer="layer4"
     showguides="true"
     inkscape:guide-bbox="true"
     inkscape:window-width="1270"
     inkscape:window-height="856"
     inkscape:window-x="57"
     inkscape:window-y="3"
     width="620px"
     height="128px"
     showgrid="false"
     inkscape:window-maximized="0">
    <sodipodi:guide
       orientation="vertical"
       position="9.6428572"
       id="guide3060" />
    <sodipodi:guide
       orientation="vertical"
       position="26.428571"
       id="guide3062" />
    <sodipodi:guide
       orientation="horizontal"
       position="610.71429,198.63014"
       id="guide3064" />
    <sodipodi:guide
       orientation="horizontal"
       position="761.64384,163.0137"
       id="guide3066" />
    <sodipodi:guide
       orientation="horizontal"
       position="18.571429"
       id="guide3068" />
    <sodipodi:guide
       orientation="horizontal"
       position="7.5"
       id="guide3070" />
    <sodipodi:guide
       orientation="vertical"
       position="579.45205,231.50685"
       id="guide3072" />
    <sodipodi:guide
       orientation="vertical"
       position="610.71429"
       id="guide3074" />
  </sodipodi:namedview>
  <metadata
     id="metadata7">
    <rdf:RDF>
      <cc:Work
         rdf:about="">
        <dc:format>image/svg+xml</dc:format>
        <dc:type
           rdf:resource="http://purl.org/dc/dcmitype/StillImage" />
        <dc:title></dc:title>
      </cc:Work>
    </rdf:RDF>
  </metadata>
  <g
     inkscape:label="Bitmap Reference"
     inkscape:groupmode="layer"
     id="layer1"
     style="display:none"
     transform="translate(-69.21429,264.28068)">
    <image
       sodipodi:absref="/Users/mon/Downloads/i2plogo.png"
       xlink:href="i2plogo.png"
       width="600.85712"
       height="118.14606"
       id="image3014"
       x="79.037186"
       y="83.147903"
       style="display:inline" />
  </g>
  <g
     inkscape:groupmode="layer"
     id="layer3"
     inkscape:label="Red Nodes"
     style="display:inline"
     transform="translate(-69.21429,264.28068)" />
  <g
     inkscape:groupmode="layer"
     id="layer5"
     inkscape:label="Green Nodes"
     transform="translate(-69.21429,264.28068)" />
  <g
     inkscape:groupmode="layer"
     id="layer4"
     inkscape:label="Yellow Nodes"
     style="display:inline"
     transform="translate(-69.21429,264.28068)">
    <g
       id="g3096"
       transform="matrix(1.594405,0,0,1.594405,-394.73711,-113.24169)">
      <path
         transform="translate(8.857147,3.64285)"
         d="m 317.49999,105.3979 c 0,5.22698 -4.2373,9.46429 -9.46428,9.46429 -5.22699,0 -9.46429,-4.23731 -9.46429,-9.46429 0,-5.22698 4.2373,-9.464282 9.46429,-9.464282 5.22698,0 9.46428,4.237302 9.46428,9.464282 z"
         sodipodi:ry="9.4642859"
         sodipodi:rx="9.4642859"
         sodipodi:cy="105.3979"
         sodipodi:cx="308.03571"
         id="path2857"
         style="fill:#ff0101;fill-opacity:1;stroke:none;display:inline"
         sodipodi:type="arc" />
      <path
         sodipodi:type="arc"
         style="fill:#ff0101;fill-opacity:1;stroke:none;display:inline"
         id="path2861"
         sodipodi:cx="308.03571"
         sodipodi:cy="105.3979"
         sodipodi:rx="9.4642859"
         sodipodi:ry="9.4642859"
         d="m 317.49999,105.3979 c 0,5.22698 -4.2373,9.46429 -9.46428,9.46429 -5.22699,0 -9.46429,-4.23731 -9.46429,-9.46429 0,-5.22698 4.2373,-9.464282 9.46429,-9.464282 5.22698,0 9.46428,4.237302 9.46428,9.464282 z"
         transform="translate(8.857147,26.57141)" />
      <path
         transform="translate(8.85716,49.75148)"
         d="m 317.49999,105.3979 c 0,5.22698 -4.2373,9.46429 -9.46428,9.46429 -5.22699,0 -9.46429,-4.23731 -9.46429,-9.46429 0,-5.22698 4.2373,-9.464282 9.46429,-9.464282 5.22698,0 9.46428,4.237302 9.46428,9.464282 z"
         sodipodi:ry="9.4642859"
         sodipodi:rx="9.4642859"
         sodipodi:cy="105.3979"
         sodipodi:cx="308.03571"
         id="path2863"
         style="fill:#ff0101;fill-opacity:1;stroke:none;display:inline"
         sodipodi:type="arc" />
      <path
         sodipodi:type="arc"
         style="fill:#ff0101;fill-opacity:1;stroke:none;display:inline"
         id="path2865"
         sodipodi:cx="308.03571"
         sodipodi:cy="105.3979"
         sodipodi:rx="9.4642859"
         sodipodi:ry="9.4642859"
         d="m 317.49999,105.3979 c 0,5.22698 -4.2373,9.46429 -9.46428,9.46429 -5.22699,0 -9.46429,-4.23731 -9.46429,-9.46429 0,-5.22698 4.2373,-9.464282 9.46429,-9.464282 5.22698,0 9.46428,4.237302 9.46428,9.464282 z"
         transform="translate(8.85716,72.2857)" />
      <path
         sodipodi:type="arc"
         style="fill:#ff0101;fill-opacity:1;stroke:none;display:inline"
         id="path2869"
         sodipodi:cx="308.03571"
         sodipodi:cy="105.3979"
         sodipodi:rx="9.4642859"
         sodipodi:ry="9.4642859"
         d="m 317.49999,105.3979 c 0,5.22698 -4.2373,9.46429 -9.46428,9.46429 -5.22699,0 -9.46429,-4.23731 -9.46429,-9.46429 0,-5.22698 4.2373,-9.464282 9.46429,-9.464282 5.22698,0 9.46428,4.237302 9.46428,9.464282 z"
         transform="translate(32.85715,3.64285)" />
      <path
         transform="translate(32.85715,26.57141)"
         d="m 317.49999,105.3979 c 0,5.22698 -4.2373,9.46429 -9.46428,9.46429 -5.22699,0 -9.46429,-4.23731 -9.46429,-9.46429 0,-5.22698 4.2373,-9.464282 9.46429,-9.464282 5.22698,0 9.46428,4.237302 9.46428,9.464282 z"
         sodipodi:ry="9.4642859"
         sodipodi:rx="9.4642859"
         sodipodi:cy="105.3979"
         sodipodi:cx="308.03571"
         id="path2871"
         style="fill:#ff0101;fill-opacity:1;stroke:none;display:inline"
         sodipodi:type="arc" />
      <path
         sodipodi:type="arc"
         style="fill:#ff0101;fill-opacity:1;stroke:none;display:inline"
         id="path2873"
         sodipodi:cx="308.03571"
         sodipodi:cy="105.3979"
         sodipodi:rx="9.4642859"
         sodipodi:ry="9.4642859"
         d="m 317.49999,105.3979 c 0,5.22698 -4.2373,9.46429 -9.46428,9.46429 -5.22699,0 -9.46429,-4.23731 -9.46429,-9.46429 0,-5.22698 4.2373,-9.464282 9.46429,-9.464282 5.22698,0 9.46428,4.237302 9.46428,9.464282 z"
         transform="translate(32.85716,49.75148)" />
      <path
         transform="translate(32.85716,72.2857)"
         d="m 317.49999,105.3979 c 0,5.22698 -4.2373,9.46429 -9.46428,9.46429 -5.22699,0 -9.46429,-4.23731 -9.46429,-9.46429 0,-5.22698 4.2373,-9.464282 9.46429,-9.464282 5.22698,0 9.46428,4.237302 9.46428,9.464282 z"
         sodipodi:ry="9.4642859"
         sodipodi:rx="9.4642859"
         sodipodi:cy="105.3979"
         sodipodi:cx="308.03571"
         id="path2875"
         style="fill:#ff0101;fill-opacity:1;stroke:none;display:inline"
         sodipodi:type="arc" />
      <path
         sodipodi:type="arc"
         style="fill:#ff0101;fill-opacity:1;stroke:none;display:inline"
         id="path2877"
         sodipodi:cx="308.03571"
         sodipodi:cy="105.3979"
         sodipodi:rx="9.4642859"
         sodipodi:ry="9.4642859"
         d="m 317.49999,105.3979 c 0,5.22698 -4.2373,9.46429 -9.46428,9.46429 -5.22699,0 -9.46429,-4.23731 -9.46429,-9.46429 0,-5.22698 4.2373,-9.464282 9.46429,-9.464282 5.22698,0 9.46428,4.237302 9.46428,9.464282 z"
         transform="translate(57.07144,3.64285)" />
      <path
         sodipodi:type="arc"
         style="fill:#ff0101;fill-opacity:1;stroke:none;display:inline"
         id="path2881"
         sodipodi:cx="308.03571"
         sodipodi:cy="105.3979"
         sodipodi:rx="9.4642859"
         sodipodi:ry="9.4642859"
         d="m 317.49999,105.3979 c 0,5.22698 -4.2373,9.46429 -9.46428,9.46429 -5.22699,0 -9.46429,-4.23731 -9.46429,-9.46429 0,-5.22698 4.2373,-9.464282 9.46429,-9.464282 5.22698,0 9.46428,4.237302 9.46428,9.464282 z"
         transform="translate(57.07145,49.75148)" />
      <path
         transform="translate(57.07145,72.2857)"
         d="m 317.49999,105.3979 c 0,5.22698 -4.2373,9.46429 -9.46428,9.46429 -5.22699,0 -9.46429,-4.23731 -9.46429,-9.46429 0,-5.22698 4.2373,-9.464282 9.46429,-9.464282 5.22698,0 9.46428,4.237302 9.46428,9.464282 z"
         sodipodi:ry="9.4642859"
         sodipodi:rx="9.4642859"
         sodipodi:cy="105.3979"
         sodipodi:cx="308.03571"
         id="path2883"
         style="fill:#ff0101;fill-opacity:1;stroke:none;display:inline"
         sodipodi:type="arc" />
      <path
         sodipodi:type="arc"
         style="fill:#ff0101;fill-opacity:1;stroke:none;display:inline"
         id="path2891"
         sodipodi:cx="308.03571"
         sodipodi:cy="105.3979"
         sodipodi:rx="9.4642859"
         sodipodi:ry="9.4642859"
         d="m 317.49999,105.3979 c 0,5.22698 -4.2373,9.46429 -9.46428,9.46429 -5.22699,0 -9.46429,-4.23731 -9.46429,-9.46429 0,-5.22698 4.2373,-9.464282 9.46429,-9.464282 5.22698,0 9.46428,4.237302 9.46428,9.464282 z"
         transform="translate(81.07145,72.2857)" />
      <path
         transform="translate(105.5715,26.57141)"
         d="m 317.49999,105.3979 c 0,5.22698 -4.2373,9.46429 -9.46428,9.46429 -5.22699,0 -9.46429,-4.23731 -9.46429,-9.46429 0,-5.22698 4.2373,-9.464282 9.46429,-9.464282 5.22698,0 9.46428,4.237302 9.46428,9.464282 z"
         sodipodi:ry="9.4642859"
         sodipodi:rx="9.4642859"
         sodipodi:cy="105.3979"
         sodipodi:cx="308.03571"
         id="path2895"
         style="fill:#ff0101;fill-opacity:1;stroke:none;display:inline"
         sodipodi:type="arc" />
      <path
         transform="translate(105.5715,72.2857)"
         d="m 317.49999,105.3979 c 0,5.22698 -4.2373,9.46429 -9.46428,9.46429 -5.22699,0 -9.46429,-4.23731 -9.46429,-9.46429 0,-5.22698 4.2373,-9.464282 9.46429,-9.464282 5.22698,0 9.46428,4.237302 9.46428,9.464282 z"
         sodipodi:ry="9.4642859"
         sodipodi:rx="9.4642859"
         sodipodi:cy="105.3979"
         sodipodi:cx="308.03571"
         id="path2899"
         style="fill:#ff0101;fill-opacity:1;stroke:none;display:inline"
         sodipodi:type="arc" />
      <path
         sodipodi:type="arc"
         style="fill:#01ff01;fill-opacity:1;stroke:none;display:inline"
         id="path2917"
         sodipodi:cx="308.03571"
         sodipodi:cy="105.3979"
         sodipodi:rx="9.4642859"
         sodipodi:ry="9.4642859"
         d="m 317.49999,105.3979 c 0,5.22698 -4.2373,9.46429 -9.46428,9.46429 -5.22699,0 -9.46429,-4.23731 -9.46429,-9.46429 0,-5.22698 4.2373,-9.464282 9.46429,-9.464282 5.22698,0 9.46428,4.237302 9.46428,9.464282 z"
         transform="translate(177.7858,3.64285)" />
      <path
         transform="translate(177.7858,26.57141)"
         d="m 317.49999,105.3979 c 0,5.22698 -4.2373,9.46429 -9.46428,9.46429 -5.22699,0 -9.46429,-4.23731 -9.46429,-9.46429 0,-5.22698 4.2373,-9.464282 9.46429,-9.464282 5.22698,0 9.46428,4.237302 9.46428,9.464282 z"
         sodipodi:ry="9.4642859"
         sodipodi:rx="9.4642859"
         sodipodi:cy="105.3979"
         sodipodi:cx="308.03571"
         id="path2919"
         style="fill:#01ff01;fill-opacity:1;stroke:none;display:inline"
         sodipodi:type="arc" />
      <path
         sodipodi:type="arc"
         style="fill:#01ff01;fill-opacity:1;stroke:none;display:inline"
         id="path2929"
         sodipodi:cx="308.03571"
         sodipodi:cy="105.3979"
         sodipodi:rx="9.4642859"
         sodipodi:ry="9.4642859"
         d="m 317.49999,105.3979 c 0,5.22698 -4.2373,9.46429 -9.46428,9.46429 -5.22699,0 -9.46429,-4.23731 -9.46429,-9.46429 0,-5.22698 4.2373,-9.464282 9.46429,-9.464282 5.22698,0 9.46428,4.237302 9.46428,9.464282 z"
         transform="translate(202.5001,49.75148)" />
      <path
         transform="translate(226.5001,3.64285)"
         d="m 317.49999,105.3979 c 0,5.22698 -4.2373,9.46429 -9.46428,9.46429 -5.22699,0 -9.46429,-4.23731 -9.46429,-9.46429 0,-5.22698 4.2373,-9.464282 9.46429,-9.464282 5.22698,0 9.46428,4.237302 9.46428,9.464282 z"
         sodipodi:ry="9.4642859"
         sodipodi:rx="9.4642859"
         sodipodi:cy="105.3979"
         sodipodi:cx="308.03571"
         id="path2933"
         style="fill:#01ff01;fill-opacity:1;stroke:none;display:inline"
         sodipodi:type="arc" />
      <path
         sodipodi:type="arc"
         style="fill:#01ff01;fill-opacity:1;stroke:none;display:inline"
         id="path2935"
         sodipodi:cx="308.03571"
         sodipodi:cy="105.3979"
         sodipodi:rx="9.4642859"
         sodipodi:ry="9.4642859"
         d="m 317.49999,105.3979 c 0,5.22698 -4.2373,9.46429 -9.46428,9.46429 -5.22699,0 -9.46429,-4.23731 -9.46429,-9.46429 0,-5.22698 4.2373,-9.464282 9.46429,-9.464282 5.22698,0 9.46428,4.237302 9.46428,9.464282 z"
         transform="translate(226.5001,26.57141)" />
      <path
         sodipodi:type="arc"
         style="fill:#01ff01;fill-opacity:1;stroke:none;display:inline"
         id="path2939"
         sodipodi:cx="308.03571"
         sodipodi:cy="105.3979"
         sodipodi:rx="9.4642859"
         sodipodi:ry="9.4642859"
         d="m 317.49999,105.3979 c 0,5.22698 -4.2373,9.46429 -9.46428,9.46429 -5.22699,0 -9.46429,-4.23731 -9.46429,-9.46429 0,-5.22698 4.2373,-9.464282 9.46429,-9.464282 5.22698,0 9.46428,4.237302 9.46428,9.464282 z"
         transform="translate(226.5001,72.2857)" />
      <path
         transform="translate(250.7144,3.64285)"
         d="m 317.49999,105.3979 c 0,5.22698 -4.2373,9.46429 -9.46428,9.46429 -5.22699,0 -9.46429,-4.23731 -9.46429,-9.46429 0,-5.22698 4.2373,-9.464282 9.46429,-9.464282 5.22698,0 9.46428,4.237302 9.46428,9.464282 z"
         sodipodi:ry="9.4642859"
         sodipodi:rx="9.4642859"
         sodipodi:cy="105.3979"
         sodipodi:cx="308.03571"
         id="path2941"
         style="fill:#01ff01;fill-opacity:1;stroke:none;display:inline"
         sodipodi:type="arc" />
      <path
         transform="translate(250.7144,49.75148)"
         d="m 317.49999,105.3979 c 0,5.22698 -4.2373,9.46429 -9.46428,9.46429 -5.22699,0 -9.46429,-4.23731 -9.46429,-9.46429 0,-5.22698 4.2373,-9.464282 9.46429,-9.464282 5.22698,0 9.46428,4.237302 9.46428,9.464282 z"
         sodipodi:ry="9.4642859"
         sodipodi:rx="9.4642859"
         sodipodi:cy="105.3979"
         sodipodi:cx="308.03571"
         id="path2945"
         style="fill:#01ff01;fill-opacity:1;stroke:none;display:inline"
         sodipodi:type="arc" />
      <path
         sodipodi:type="arc"
         style="fill:#01ff01;fill-opacity:1;stroke:none;display:inline"
         id="path2949"
         sodipodi:cx="308.03571"
         sodipodi:cy="105.3979"
         sodipodi:rx="9.4642859"
         sodipodi:ry="9.4642859"
         d="m 317.49999,105.3979 c 0,5.22698 -4.2373,9.46429 -9.46428,9.46429 -5.22699,0 -9.46429,-4.23731 -9.46429,-9.46429 0,-5.22698 4.2373,-9.464282 9.46429,-9.464282 5.22698,0 9.46428,4.237302 9.46428,9.464282 z"
         transform="translate(274.7144,3.64285)" />
      <path
         sodipodi:type="arc"
         style="fill:#01ff01;fill-opacity:1;stroke:none;display:inline"
         id="path2953"
         sodipodi:cx="308.03571"
         sodipodi:cy="105.3979"
         sodipodi:rx="9.4642859"
         sodipodi:ry="9.4642859"
         d="m 317.49999,105.3979 c 0,5.22698 -4.2373,9.46429 -9.46428,9.46429 -5.22699,0 -9.46429,-4.23731 -9.46429,-9.46429 0,-5.22698 4.2373,-9.464282 9.46429,-9.464282 5.22698,0 9.46428,4.237302 9.46428,9.464282 z"
         transform="translate(274.7144,49.75148)" />
      <path
         transform="translate(274.7144,72.2857)"
         d="m 317.49999,105.3979 c 0,5.22698 -4.2373,9.46429 -9.46428,9.46429 -5.22699,0 -9.46429,-4.23731 -9.46429,-9.46429 0,-5.22698 4.2373,-9.464282 9.46429,-9.464282 5.22698,0 9.46428,4.237302 9.46428,9.464282 z"
         sodipodi:ry="9.4642859"
         sodipodi:rx="9.4642859"
         sodipodi:cy="105.3979"
         sodipodi:cx="308.03571"
         id="path2955"
         style="fill:#01ff01;fill-opacity:1;stroke:none;display:inline"
         sodipodi:type="arc" />
      <path
         sodipodi:type="arc"
         style="fill:#01ff01;fill-opacity:1;stroke:none;display:inline"
         id="path2959"
         sodipodi:cx="308.03571"
         sodipodi:cy="105.3979"
         sodipodi:rx="9.4642859"
         sodipodi:ry="9.4642859"
         d="m 317.49999,105.3979 c 0,5.22698 -4.2373,9.46429 -9.46428,9.46429 -5.22699,0 -9.46429,-4.23731 -9.46429,-9.46429 0,-5.22698 4.2373,-9.464282 9.46429,-9.464282 5.22698,0 9.46428,4.237302 9.46428,9.464282 z"
         transform="translate(299.2144,26.57141)" />
      <path
         transform="translate(299.2144,49.75148)"
         d="m 317.49999,105.3979 c 0,5.22698 -4.2373,9.46429 -9.46428,9.46429 -5.22699,0 -9.46429,-4.23731 -9.46429,-9.46429 0,-5.22698 4.2373,-9.464282 9.46429,-9.464282 5.22698,0 9.46428,4.237302 9.46428,9.464282 z"
         sodipodi:ry="9.4642859"
         sodipodi:rx="9.4642859"
         sodipodi:cy="105.3979"
         sodipodi:cx="308.03571"
         id="path2961"
         style="fill:#01ff01;fill-opacity:1;stroke:none;display:inline"
         sodipodi:type="arc" />
      <path
         sodipodi:type="arc"
         style="fill:#01ff01;fill-opacity:1;stroke:none;display:inline"
         id="path2963"
         sodipodi:cx="308.03571"
         sodipodi:cy="105.3979"
         sodipodi:rx="9.4642859"
         sodipodi:ry="9.4642859"
         d="m 317.49999,105.3979 c 0,5.22698 -4.2373,9.46429 -9.46428,9.46429 -5.22699,0 -9.46429,-4.23731 -9.46429,-9.46429 0,-5.22698 4.2373,-9.464282 9.46429,-9.464282 5.22698,0 9.46428,4.237302 9.46428,9.464282 z"
         transform="translate(299.2144,72.2857)" />
      <path
         sodipodi:type="arc"
         style="fill:#01ff01;fill-opacity:1;stroke:none;display:inline"
         id="path2965"
         sodipodi:cx="308.03571"
         sodipodi:cy="105.3979"
         sodipodi:rx="9.4642859"
         sodipodi:ry="9.4642859"
         d="m 317.49999,105.3979 c 0,5.22698 -4.2373,9.46429 -9.46428,9.46429 -5.22699,0 -9.46429,-4.23731 -9.46429,-9.46429 0,-5.22698 4.2373,-9.464282 9.46429,-9.464282 5.22698,0 9.46428,4.237302 9.46428,9.464282 z"
         transform="translate(323.2144,3.64285)" />
      <path
         transform="translate(323.2144,26.57141)"
         d="m 317.49999,105.3979 c 0,5.22698 -4.2373,9.46429 -9.46428,9.46429 -5.22699,0 -9.46429,-4.23731 -9.46429,-9.46429 0,-5.22698 4.2373,-9.464282 9.46429,-9.464282 5.22698,0 9.46428,4.237302 9.46428,9.464282 z"
         sodipodi:ry="9.4642859"
         sodipodi:rx="9.4642859"
         sodipodi:cy="105.3979"
         sodipodi:cx="308.03571"
         id="path2967"
         style="fill:#01ff01;fill-opacity:1;stroke:none;display:inline"
         sodipodi:type="arc" />
      <path
         sodipodi:type="arc"
         style="fill:#01ff01;fill-opacity:1;stroke:none;display:inline"
         id="path2969"
         sodipodi:cx="308.03571"
         sodipodi:cy="105.3979"
         sodipodi:rx="9.4642859"
         sodipodi:ry="9.4642859"
         d="m 317.49999,105.3979 c 0,5.22698 -4.2373,9.46429 -9.46428,9.46429 -5.22699,0 -9.46429,-4.23731 -9.46429,-9.46429 0,-5.22698 4.2373,-9.464282 9.46429,-9.464282 5.22698,0 9.46428,4.237302 9.46428,9.464282 z"
         transform="translate(323.2144,49.75148)" />
      <path
         transform="translate(323.2144,72.2857)"
         d="m 317.49999,105.3979 c 0,5.22698 -4.2373,9.46429 -9.46428,9.46429 -5.22699,0 -9.46429,-4.23731 -9.46429,-9.46429 0,-5.22698 4.2373,-9.464282 9.46429,-9.464282 5.22698,0 9.46428,4.237302 9.46428,9.464282 z"
         sodipodi:ry="9.4642859"
         sodipodi:rx="9.4642859"
         sodipodi:cy="105.3979"
         sodipodi:cx="308.03571"
         id="path2971"
         style="fill:#01ff01;fill-opacity:1;stroke:none;display:inline"
         sodipodi:type="arc" />
      <path
         sodipodi:type="arc"
         style="fill:#01ff01;fill-opacity:1;stroke:none;display:inline"
         id="path2973"
         sodipodi:cx="308.03571"
         sodipodi:cy="105.3979"
         sodipodi:rx="9.4642859"
         sodipodi:ry="9.4642859"
         d="m 317.49999,105.3979 c 0,5.22698 -4.2373,9.46429 -9.46428,9.46429 -5.22699,0 -9.46429,-4.23731 -9.46429,-9.46429 0,-5.22698 4.2373,-9.464282 9.46429,-9.464282 5.22698,0 9.46428,4.237302 9.46428,9.464282 z"
         transform="translate(347.4287,3.64285)" />
      <path
         transform="translate(347.4287,26.57141)"
         d="m 317.49999,105.3979 c 0,5.22698 -4.2373,9.46429 -9.46428,9.46429 -5.22699,0 -9.46429,-4.23731 -9.46429,-9.46429 0,-5.22698 4.2373,-9.464282 9.46429,-9.464282 5.22698,0 9.46428,4.237302 9.46428,9.464282 z"
         sodipodi:ry="9.4642859"
         sodipodi:rx="9.4642859"
         sodipodi:cy="105.3979"
         sodipodi:cx="308.03571"
         id="path2975"
         style="fill:#01ff01;fill-opacity:1;stroke:none;display:inline"
         sodipodi:type="arc" />
      <path
         sodipodi:type="arc"
         style="fill:#01ff01;fill-opacity:1;stroke:none;display:inline"
         id="path2977"
         sodipodi:cx="308.03571"
         sodipodi:cy="105.3979"
         sodipodi:rx="9.4642859"
         sodipodi:ry="9.4642859"
         d="m 317.49999,105.3979 c 0,5.22698 -4.2373,9.46429 -9.46428,9.46429 -5.22699,0 -9.46429,-4.23731 -9.46429,-9.46429 0,-5.22698 4.2373,-9.464282 9.46429,-9.464282 5.22698,0 9.46428,4.237302 9.46428,9.464282 z"
         transform="translate(347.4287,49.75148)" />
      <path
         transform="translate(347.4287,72.2857)"
         d="m 317.49999,105.3979 c 0,5.22698 -4.2373,9.46429 -9.46428,9.46429 -5.22699,0 -9.46429,-4.23731 -9.46429,-9.46429 0,-5.22698 4.2373,-9.464282 9.46429,-9.464282 5.22698,0 9.46428,4.237302 9.46428,9.464282 z"
         sodipodi:ry="9.4642859"
         sodipodi:rx="9.4642859"
         sodipodi:cy="105.3979"
         sodipodi:cx="308.03571"
         id="path2979"
         style="fill:#01ff01;fill-opacity:1;stroke:none;display:inline"
         sodipodi:type="arc" />
      <path
         transform="translate(57.07144,26.57141)"
         d="m 317.49999,105.3979 c 0,5.22698 -4.2373,9.46429 -9.46428,9.46429 -5.22699,0 -9.46429,-4.23731 -9.46429,-9.46429 0,-5.22698 4.2373,-9.464282 9.46429,-9.464282 5.22698,0 9.46428,4.237302 9.46428,9.464282 z"
         sodipodi:ry="9.4642859"
         sodipodi:rx="9.4642859"
         sodipodi:cy="105.3979"
         sodipodi:cx="308.03571"
         id="path2879"
         style="fill:#ebed02;fill-opacity:1;stroke:none;display:inline"
         sodipodi:type="arc" />
      <path
         transform="translate(81.07144,3.642846)"
         d="m 317.49999,105.3979 c 0,5.22698 -4.2373,9.46429 -9.46428,9.46429 -5.22699,0 -9.46429,-4.23731 -9.46429,-9.46429 0,-5.22698 4.2373,-9.464282 9.46429,-9.464282 5.22698,0 9.46428,4.237302 9.46428,9.464282 z"
         sodipodi:ry="9.4642859"
         sodipodi:rx="9.4642859"
         sodipodi:cy="105.3979"
         sodipodi:cx="308.03571"
         id="path2885"
         style="fill:#ebed02;fill-opacity:1;stroke:none;display:inline"
         sodipodi:type="arc" />
      <path
         sodipodi:type="arc"
         style="fill:#ebed02;fill-opacity:1;stroke:none;display:inline"
         id="path2887"
         sodipodi:cx="308.03571"
         sodipodi:cy="105.3979"
         sodipodi:rx="9.4642859"
         sodipodi:ry="9.4642859"
         d="m 317.49999,105.3979 c 0,5.22698 -4.2373,9.46429 -9.46428,9.46429 -5.22699,0 -9.46429,-4.23731 -9.46429,-9.46429 0,-5.22698 4.2373,-9.464282 9.46429,-9.464282 5.22698,0 9.46428,4.237302 9.46428,9.464282 z"
         transform="translate(81.07144,26.57141)" />
      <path
         transform="translate(81.07145,49.75148)"
         d="m 317.49999,105.3979 c 0,5.22698 -4.2373,9.46429 -9.46428,9.46429 -5.22699,0 -9.46429,-4.23731 -9.46429,-9.46429 0,-5.22698 4.2373,-9.464282 9.46429,-9.464282 5.22698,0 9.46428,4.237302 9.46428,9.464282 z"
         sodipodi:ry="9.4642859"
         sodipodi:rx="9.4642859"
         sodipodi:cy="105.3979"
         sodipodi:cx="308.03571"
         id="path2889"
         style="fill:#ebed02;fill-opacity:1;stroke:none;display:inline"
         sodipodi:type="arc" />
      <path
         sodipodi:type="arc"
         style="fill:#ebed02;fill-opacity:1;stroke:none;display:inline"
         id="path2893"
         sodipodi:cx="308.03571"
         sodipodi:cy="105.3979"
         sodipodi:rx="9.4642859"
         sodipodi:ry="9.4642859"
         d="m 317.49999,105.3979 c 0,5.22698 -4.2373,9.46429 -9.46428,9.46429 -5.22699,0 -9.46429,-4.23731 -9.46429,-9.46429 0,-5.22698 4.2373,-9.464282 9.46429,-9.464282 5.22698,0 9.46428,4.237302 9.46428,9.464282 z"
         transform="translate(105.5715,3.642846)" />
      <path
         sodipodi:type="arc"
         style="fill:#ebed02;fill-opacity:1;stroke:none;display:inline"
         id="path2897"
         sodipodi:cx="308.03571"
         sodipodi:cy="105.3979"
         sodipodi:rx="9.4642859"
         sodipodi:ry="9.4642859"
         d="m 317.49999,105.3979 c 0,5.22698 -4.2373,9.46429 -9.46428,9.46429 -5.22699,0 -9.46429,-4.23731 -9.46429,-9.46429 0,-5.22698 4.2373,-9.464282 9.46429,-9.464282 5.22698,0 9.46428,4.237302 9.46428,9.464282 z"
         transform="translate(105.5715,49.75148)" />
      <path
         transform="translate(129.5715,3.642846)"
         d="m 317.49999,105.3979 c 0,5.22698 -4.2373,9.46429 -9.46428,9.46429 -5.22699,0 -9.46429,-4.23731 -9.46429,-9.46429 0,-5.22698 4.2373,-9.464282 9.46429,-9.464282 5.22698,0 9.46428,4.237302 9.46428,9.464282 z"
         sodipodi:ry="9.4642859"
         sodipodi:rx="9.4642859"
         sodipodi:cy="105.3979"
         sodipodi:cx="308.03571"
         id="path2901"
         style="fill:#ebed02;fill-opacity:1;stroke:none;display:inline"
         sodipodi:type="arc" />
      <path
         sodipodi:type="arc"
         style="fill:#ebed02;fill-opacity:1;stroke:none;display:inline"
         id="path2903"
         sodipodi:cx="308.03571"
         sodipodi:cy="105.3979"
         sodipodi:rx="9.4642859"
         sodipodi:ry="9.4642859"
         d="m 317.49999,105.3979 c 0,5.22698 -4.2373,9.46429 -9.46428,9.46429 -5.22699,0 -9.46429,-4.23731 -9.46429,-9.46429 0,-5.22698 4.2373,-9.464282 9.46429,-9.464282 5.22698,0 9.46428,4.237302 9.46428,9.464282 z"
         transform="translate(129.5715,26.57141)" />
      <path
         transform="translate(129.5715,49.75148)"
         d="m 317.49999,105.3979 c 0,5.22698 -4.2373,9.46429 -9.46428,9.46429 -5.22699,0 -9.46429,-4.23731 -9.46429,-9.46429 0,-5.22698 4.2373,-9.464282 9.46429,-9.464282 5.22698,0 9.46428,4.237302 9.46428,9.464282 z"
         sodipodi:ry="9.4642859"
         sodipodi:rx="9.4642859"
         sodipodi:cy="105.3979"
         sodipodi:cx="308.03571"
         id="path2905"
         style="fill:#ebed02;fill-opacity:1;stroke:none;display:inline"
         sodipodi:type="arc" />
      <path
         sodipodi:type="arc"
         style="fill:#ebed02;fill-opacity:1;stroke:none;display:inline"
         id="path2907"
         sodipodi:cx="308.03571"
         sodipodi:cy="105.3979"
         sodipodi:rx="9.4642859"
         sodipodi:ry="9.4642859"
         d="m 317.49999,105.3979 c 0,5.22698 -4.2373,9.46429 -9.46428,9.46429 -5.22699,0 -9.46429,-4.23731 -9.46429,-9.46429 0,-5.22698 4.2373,-9.464282 9.46429,-9.464282 5.22698,0 9.46428,4.237302 9.46428,9.464282 z"
         transform="translate(129.5715,72.2857)" />
      <path
         transform="translate(153.7858,3.642846)"
         d="m 317.49999,105.3979 c 0,5.22698 -4.2373,9.46429 -9.46428,9.46429 -5.22699,0 -9.46429,-4.23731 -9.46429,-9.46429 0,-5.22698 4.2373,-9.464282 9.46429,-9.464282 5.22698,0 9.46428,4.237302 9.46428,9.464282 z"
         sodipodi:ry="9.4642859"
         sodipodi:rx="9.4642859"
         sodipodi:cy="105.3979"
         sodipodi:cx="308.03571"
         id="path2909"
         style="fill:#ebed02;fill-opacity:1;stroke:none;display:inline"
         sodipodi:type="arc" />
      <path
         sodipodi:type="arc"
         style="fill:#ebed02;fill-opacity:1;stroke:none;display:inline"
         id="path2911"
         sodipodi:cx="308.03571"
         sodipodi:cy="105.3979"
         sodipodi:rx="9.4642859"
         sodipodi:ry="9.4642859"
         d="m 317.49999,105.3979 c 0,5.22698 -4.2373,9.46429 -9.46428,9.46429 -5.22699,0 -9.46429,-4.23731 -9.46429,-9.46429 0,-5.22698 4.2373,-9.464282 9.46429,-9.464282 5.22698,0 9.46428,4.237302 9.46428,9.464282 z"
         transform="translate(153.7858,26.57141)" />
      <path
         transform="translate(153.7858,49.75148)"
         d="m 317.49999,105.3979 c 0,5.22698 -4.2373,9.46429 -9.46428,9.46429 -5.22699,0 -9.46429,-4.23731 -9.46429,-9.46429 0,-5.22698 4.2373,-9.464282 9.46429,-9.464282 5.22698,0 9.46428,4.237302 9.46428,9.464282 z"
         sodipodi:ry="9.4642859"
         sodipodi:rx="9.4642859"
         sodipodi:cy="105.3979"
         sodipodi:cx="308.03571"
         id="path2913"
         style="fill:#ebed02;fill-opacity:1;stroke:none;display:inline"
         sodipodi:type="arc" />
      <path
         sodipodi:type="arc"
         style="fill:#ebed02;fill-opacity:1;stroke:none;display:inline"
         id="path2915"
         sodipodi:cx="308.03571"
         sodipodi:cy="105.3979"
         sodipodi:rx="9.4642859"
         sodipodi:ry="9.4642859"
         d="m 317.49999,105.3979 c 0,5.22698 -4.2373,9.46429 -9.46428,9.46429 -5.22699,0 -9.46429,-4.23731 -9.46429,-9.46429 0,-5.22698 4.2373,-9.464282 9.46429,-9.464282 5.22698,0 9.46428,4.237302 9.46428,9.464282 z"
         transform="translate(153.7858,72.2857)" />
      <path
         sodipodi:type="arc"
         style="fill:#ebed02;fill-opacity:1;stroke:none;display:inline"
         id="path2921"
         sodipodi:cx="308.03571"
         sodipodi:cy="105.3979"
         sodipodi:rx="9.4642859"
         sodipodi:ry="9.4642859"
         d="m 317.49999,105.3979 c 0,5.22698 -4.2373,9.46429 -9.46428,9.46429 -5.22699,0 -9.46429,-4.23731 -9.46429,-9.46429 0,-5.22698 4.2373,-9.464282 9.46429,-9.464282 5.22698,0 9.46428,4.237302 9.46428,9.464282 z"
         transform="translate(177.7858,49.75148)" />
      <path
         transform="translate(177.7858,72.2857)"
         d="m 317.49999,105.3979 c 0,5.22698 -4.2373,9.46429 -9.46428,9.46429 -5.22699,0 -9.46429,-4.23731 -9.46429,-9.46429 0,-5.22698 4.2373,-9.464282 9.46429,-9.464282 5.22698,0 9.46428,4.237302 9.46428,9.464282 z"
         sodipodi:ry="9.4642859"
         sodipodi:rx="9.4642859"
         sodipodi:cy="105.3979"
         sodipodi:cx="308.03571"
         id="path2923"
         style="fill:#ebed02;fill-opacity:1;stroke:none;display:inline"
         sodipodi:type="arc" />
      <path
         sodipodi:type="arc"
         style="fill:#ebed02;fill-opacity:1;stroke:none;display:inline"
         id="path2925"
         sodipodi:cx="308.03571"
         sodipodi:cy="105.3979"
         sodipodi:rx="9.4642859"
         sodipodi:ry="9.4642859"
         d="m 317.49999,105.3979 c 0,5.22698 -4.2373,9.46429 -9.46428,9.46429 -5.22699,0 -9.46429,-4.23731 -9.46429,-9.46429 0,-5.22698 4.2373,-9.464282 9.46429,-9.464282 5.22698,0 9.46428,4.237302 9.46428,9.464282 z"
         transform="translate(202.5001,3.642846)" />
      <path
         transform="translate(202.5001,26.57141)"
         d="m 317.49999,105.3979 c 0,5.22698 -4.2373,9.46429 -9.46428,9.46429 -5.22699,0 -9.46429,-4.23731 -9.46429,-9.46429 0,-5.22698 4.2373,-9.464282 9.46429,-9.464282 5.22698,0 9.46428,4.237302 9.46428,9.464282 z"
         sodipodi:ry="9.4642859"
         sodipodi:rx="9.4642859"
         sodipodi:cy="105.3979"
         sodipodi:cx="308.03571"
         id="path2927"
         style="fill:#ebed02;fill-opacity:1;stroke:none;display:inline"
         sodipodi:type="arc" />
      <path
         transform="translate(202.5001,72.2857)"
         d="m 317.49999,105.3979 c 0,5.22698 -4.2373,9.46429 -9.46428,9.46429 -5.22699,0 -9.46429,-4.23731 -9.46429,-9.46429 0,-5.22698 4.2373,-9.464282 9.46429,-9.464282 5.22698,0 9.46428,4.237302 9.46428,9.464282 z"
         sodipodi:ry="9.4642859"
         sodipodi:rx="9.4642859"
         sodipodi:cy="105.3979"
         sodipodi:cx="308.03571"
         id="path2931"
         style="fill:#ebed02;fill-opacity:1;stroke:none;display:inline"
         sodipodi:type="arc" />
      <path
         transform="translate(226.5001,49.75148)"
         d="m 317.49999,105.3979 c 0,5.22698 -4.2373,9.46429 -9.46428,9.46429 -5.22699,0 -9.46429,-4.23731 -9.46429,-9.46429 0,-5.22698 4.2373,-9.464282 9.46429,-9.464282 5.22698,0 9.46428,4.237302 9.46428,9.464282 z"
         sodipodi:ry="9.4642859"
         sodipodi:rx="9.4642859"
         sodipodi:cy="105.3979"
         sodipodi:cx="308.03571"
         id="path2937"
         style="fill:#ebed02;fill-opacity:1;stroke:none;display:inline"
         sodipodi:type="arc" />
      <path
         sodipodi:type="arc"
         style="fill:#ebed02;fill-opacity:1;stroke:none;display:inline"
         id="path2943"
         sodipodi:cx="308.03571"
         sodipodi:cy="105.3979"
         sodipodi:rx="9.4642859"
         sodipodi:ry="9.4642859"
         d="m 317.49999,105.3979 c 0,5.22698 -4.2373,9.46429 -9.46428,9.46429 -5.22699,0 -9.46429,-4.23731 -9.46429,-9.46429 0,-5.22698 4.2373,-9.464282 9.46429,-9.464282 5.22698,0 9.46428,4.237302 9.46428,9.464282 z"
         transform="translate(250.7144,26.57141)" />
      <path
         sodipodi:type="arc"
         style="fill:#ebed02;fill-opacity:1;stroke:none;display:inline"
         id="path2947"
         sodipodi:cx="308.03571"
         sodipodi:cy="105.3979"
         sodipodi:rx="9.4642859"
         sodipodi:ry="9.4642859"
         d="m 317.49999,105.3979 c 0,5.22698 -4.2373,9.46429 -9.46428,9.46429 -5.22699,0 -9.46429,-4.23731 -9.46429,-9.46429 0,-5.22698 4.2373,-9.464282 9.46429,-9.464282 5.22698,0 9.46428,4.237302 9.46428,9.464282 z"
         transform="translate(250.7144,72.2857)" />
      <path
         transform="translate(274.7144,26.57141)"
         d="m 317.49999,105.3979 c 0,5.22698 -4.2373,9.46429 -9.46428,9.46429 -5.22699,0 -9.46429,-4.23731 -9.46429,-9.46429 0,-5.22698 4.2373,-9.464282 9.46429,-9.464282 5.22698,0 9.46428,4.237302 9.46428,9.464282 z"
         sodipodi:ry="9.4642859"
         sodipodi:rx="9.4642859"
         sodipodi:cy="105.3979"
         sodipodi:cx="308.03571"
         id="path2951"
         style="fill:#ebed02;fill-opacity:1;stroke:none;display:inline"
         sodipodi:type="arc" />
      <path
         transform="translate(299.2144,3.642846)"
         d="m 317.49999,105.3979 c 0,5.22698 -4.2373,9.46429 -9.46428,9.46429 -5.22699,0 -9.46429,-4.23731 -9.46429,-9.46429 0,-5.22698 4.2373,-9.464282 9.46429,-9.464282 5.22698,0 9.46428,4.237302 9.46428,9.464282 z"
         sodipodi:ry="9.4642859"
         sodipodi:rx="9.4642859"
         sodipodi:cy="105.3979"
         sodipodi:cx="308.03571"
         id="path2957"
         style="fill:#ebed02;fill-opacity:1;stroke:none;display:inline"
         sodipodi:type="arc" />
    </g>
  </g>
  <g
     inkscape:groupmode="layer"
     id="layer6"
     inkscape:label="Horizontal Braces"
     transform="translate(-69.21429,264.28068)">
    <path
       style="fill:none;stroke:#000000;stroke-width:3;stroke-linecap:butt;stroke-linejoin:miter;stroke-miterlimit:0;stroke-opacity:1;stroke-dasharray:none;display:inline"
       d="m 78.857143,-255.28068 601.071437,0"
       id="path1964"
       sodipodi:nodetypes="cc"
       inkscape:connector-curvature="0" />
    <path
       style="fill:none;stroke:#000000;stroke-width:3;stroke-linecap:butt;stroke-linejoin:miter;stroke-miterlimit:0;stroke-opacity:1;stroke-dasharray:none;display:inline"
       d="m 78.857143,199.71932 601.071437,0"
       id="path2854"
       sodipodi:nodetypes="cc"
       inkscape:connector-curvature="0" />
  </g>
  <g
     inkscape:groupmode="layer"
     id="layer2"
     inkscape:label="I2P Text"
     style="display:inline"
     transform="translate(-69.21429,264.28068)">
    <text
       xml:space="preserve"
       style="font-size:344.55725098px;font-style:normal;font-weight:normal;line-height:100%;fill:#000000;fill-opacity:1;stroke:none;font-family:DavysDingbats"
       x="67.256668"
       y="5.0392609"
       id="text1955"
       sodipodi:linespacing="100%"><tspan
         sodipodi:role="line"
         id="tspan1959"
         x="67.256668"
         y="5.0392609"
         style="font-size:344.55725098px;font-style:normal;font-variant:normal;font-weight:normal;font-stretch:normal;text-align:start;line-height:100%;writing-mode:lr-tb;text-anchor:start;font-family:Arial Black">I2P</tspan></text>
  </g>
</svg>
